<?xml version="1.0" encoding="utf-8"?>
<!-- Generator: Adobe Illustrator 19.0.0, SVG Export Plug-In . SVG Version: 6.00 Build 0)  -->
<svg version="1.1" id="Layer_1" xmlns="http://www.w3.org/2000/svg" xmlns:xlink="http://www.w3.org/1999/xlink" x="0px" y="0px"
	 viewBox="27 28.1 509.6 507.4" style="enable-background:new 27 28.1 509.6 507.4;" xml:space="preserve">
<style type="text/css">
	.st0{fill:#FFFFFF;stroke:#FF0000;stroke-width:10;stroke-miterlimit:10;}
	.st1{opacity:0.3;}
	.st2{fill:#FEFEFE;}
	.st3{fill:#9A9A9A;}
	.st4{fill:#2F2F2F;}
	.st5{fill:#C7C7C7;}
	.st6{fill:#F1F1F1;}
	.st7{fill:#0E0E0E;}
	.st8{fill:#343434;}
	.st9{fill:#404040;}
	.st10{fill:#101010;}
	.st11{fill:#878787;}
	.st12{fill:#F0F0F0;}
	.st13{fill:#C4C4C4;}
	.st14{fill:#E9E9E9;}
	.st15{fill:#C3C3C3;}
	.st16{fill:#909090;}
	.st17{fill:#C2C2C2;}
	.st18{fill:#CACACA;}
	.st19{fill:#1D1D1D;}
	.st20{fill:#A3A3A3;}
	.st21{fill:#777777;}
</style>
<circle id="outer_circle_1_" class="st0" cx="281.8" cy="281.6" r="238"/>
<g id="cma_1_">
	<g id="XMLID_9_">
		<path id="XMLID_54_" d="M190.5,464.5c-15.6-11.2-25.1-33.9-11-50c10-11.4,28.5-13.5,41.1-5.1c-0.9,1.6-1.3,2.5-2.2,4.1
			c-3.7-1.6-6.5,0.3-8.2,3.2c-6.6,10.8-13.1,21.7-19.7,32.5c-1.7,2.9-2,7,2.3,11.2C191.8,462.1,191.4,462.9,190.5,464.5z
			 M223.5,411.5c2.4,1.7,6.5,7.7,8.4,8.6c1.1,0.5,1.7,0.3,2.5-0.5s1.5-1.2,2.5-0.7c2.3,1,1.5,3.4,1.3,3.8c-2.4,7.2-3.6,10.9-6,18.1
			c-0.1,0.4-0.9,2.8-3.7,1.6c-1.8-0.8-2.3-2.6-2.1-4.3c1-6.9,0.5-16.4-5.1-22.5C222.2,414,222.7,413.2,223.5,411.5z M222.2,461.3
			c1.8,0.8,2.6,2.8,2.1,3.9c-4.3,9.1-20.9,7.9-29.2,2.5c0.8-1.7,1.3-2.5,2.1-4.2c8.3,3.8,16.6,3.3,20.9-1.3
			C219.2,461.2,220.2,460.3,222.2,461.3z"/>
		<path id="XMLID_50_" d="M247.6,424.3c7.4,2.4,11.3,3.2,18.9,3.9c2.4,10.5,3.9,15.8,7.7,26.1c0.1,0,0.1,0,0.2,0
			c1.7-5.5,2.5-8.3,3.9-13.8c0.1,0,0.1,0,0.2,0c0.1,6.1,0.2,9.1,0.3,15.2c-3.7,12-8.4,23.7-13.9,35c-1.3-0.1-2-0.2-3.3-0.3
			c-6.1-18.1-10.2-35.7-12.8-54.6c-0.1-1.3-0.3-2.7-0.7-3.9c-0.4-1.4-0.5-2.5-1.8-3c-0.9-0.4-2.9-1.2-2.4-3.1
			C244.5,423.3,246.7,424.1,247.6,424.3z M246.2,445.8c0.1,0,0.1,0,0.2,0c0.8,5.9,1.3,8.8,2.5,14.7c-1,5.6-1.5,8.4-2.5,14.1
			c-0.2,10.6,7.5,8.8,7,12.3c-0.3,2.6-4.9,1.6-6.2,1.3c-5.1-1.1-7.7-1.7-12.8-3.3c-1.2-0.4-5.8-1.7-5.1-4.2c0.9-3.4,7.2,2,11-7.7
			C242.7,462.1,243.8,456.7,246.2,445.8z M281.6,428.6c8-0.5,11.9-1.1,19.7-3.3c0.3-0.1,2.8-0.6,3.3,1.7c0.3,1.1-0.2,2.1-1.2,2.7
			c-2.5,1.7-2.3,2.1-1.7,5.1c2.9,14.2,5.7,28.4,8.6,42.6c0.6,3,0.6,3.6,4.6,3.4c1.5-0.1,2.6,0.3,2.9,1.5c0.6,2.3-3.1,3.6-3.5,3.7
			c-11,2.6-20.8,4.1-32,5.1c-0.5,0-4.2,0-4.2-2.5c0-1.2,1-1.9,2.4-2.3c3.9-1,3.7-1.6,3.6-4.7C283.2,464,282.4,446.3,281.6,428.6z"/>
		<path id="XMLID_28_" d="M332.9,434.4c1.3,10,2,20.3,2.1,30.3c0.2,5.5,2,6.1,6,5.5c1.9-0.3,3.5-0.7,4.1,0.8
			c0.9,2.1-2.5,3.8-4.7,4.9c-4.9,2.4-7.4,3.5-12.4,5.5c-2.2,0.8-6.2,2.1-6.8-0.2c-0.5-1.9,1.4-2.5,3.5-4.2c2-1.7,4.3-4.7,4.4-11
			c0.2-13-0.5-25.9-2.1-38.8c0.1-0.1,0.1-0.1,0.2-0.1C329.4,430,330.6,431.5,332.9,434.4z M353,450.3c-5.4,3.8-8.1,5.5-13.8,8.5
			c-0.2-2-0.3-3.1-0.5-5.1c4.5-2.5,6.8-3.9,11.2-6.9c-8.6-8.4-16.5-17.5-23.8-27.1c-0.3-1.8-0.5-2.7-0.9-4.5
			c6.1-3.6,9-5.7,14.7-10.5c12.5,11.3,26.1,21.5,40.9,29.6c1.9,1.2,3,2.3,6,0.3c1.5-1,2.8-1.7,3.8-0.6c1.4,1.6-1.8,5.1-3.5,6.9
			c-7.5,7.6-15,14.8-23.7,21.1c-2,1.5-5,3.3-6,1.5c-0.6-1.1-0.2-1.9,0.8-3.3c2-2.9,2.1-3.6-0.3-5.8C355.8,452.8,354.9,452,353,450.3
			z"/>
	</g>
</g>
<g id="XMLID_1_" class="st1">
	<g id="XMLID_4_">
		<path id="XMLID_60_" class="st2" d="M281.9,406.6c-55.4,0-110.7,0-166.1,0c-1.4,0-1.6-0.4-1.6-1.6c0-96.6,0-193.2,0-289.9
			c0-1.4,0.4-1.6,1.6-1.6c110.6,0,221.3,0,331.9,0c1.6,0,1.7,0.4,1.7,1.8c0,96.6,0,193.1,0,289.7c0,1.4-0.4,1.6-1.6,1.6
			C392.6,406.6,337.3,406.6,281.9,406.6z"/>
		<path id="XMLID_59_" d="M324.9,259.8c4.1-0.1,8.2-0.1,12.3-0.5c4.8-0.4,9.6-0.9,14.4-1.6c4.5-0.6,9-1.2,13.4-2.2
			c3.6-0.8,7.2-1.5,10.7-2.5c5.2-1.5,10.4-3,15.5-4.7c4.1-1.4,8.2-3.1,12.2-4.8c4.4-1.9,8.8-3.9,12.9-6.3c1.8-1,3.9-1.6,5.5-3.2
			c-0.7,2.9-1.3,5.7-2.6,8.3c-1.6,3.2-3.5,6.1-5.9,8.7c-2.2,2.3-4.6,4.3-7.3,5.9c-3,1.8-6.2,3.4-9.5,4.7c-3.2,1.2-6.4,2.2-9.7,3.1
			c-4.1,1.1-8.2,1.8-12.3,2.6c-4.3,0.8-8.6,1.5-12.9,2.3c-4.4,0.8-8.8,1.5-13.3,2c-5.1,0.6-10.2,1-15.3,1.3
			c-3.2,0.2-6.5-0.1-9.7,0.2c-3.2,0.3-6.4-0.2-9.5-0.1c-4,0.2-8-0.6-11.9-0.6c-4.7,0-9.3-1.1-14-1.4c-6.1-0.3-12-1.9-18-2.7
			c-9.9-1.2-19.5-4.1-29.2-6.4c-6.7-1.6-13.3-3.4-19.9-5.5c-6.6-2.1-13.4-4.1-19.7-6.9c-6.6-2.9-13.4-5.5-19.4-9.4
			c-6.1-4-11.6-8.6-15.8-14.6c-0.6-0.8-1.2-1.7-1.6-2.7c-0.7-2.2-2.5-3-4.5-3.3c-5.9-1-11.4-3.1-16.8-5.6c-3.5-1.6-7.1-3.1-10.4-5.2
			c-4.5-2.8-8.6-6.3-11.7-10.7c-2.9-4.2-4.9-8.7-4.3-14.2c0.6-5.5,3-9.9,6.3-14c3.8-4.7,8.6-8.2,13.8-11.4
			c5.2-3.3,10.7-5.9,16.1-8.8c1.6-0.8,3.3-1.5,5-2.2c3.8-1.4,7.5-3.1,11.4-4.3c3.2-1,6.4-2,9.6-3c3.7-1.1,7.4-2.1,11.1-2.9
			c4-0.9,8.1-1.8,12.1-2.5c4.6-0.8,9.2-1.6,13.8-2.1c1.6-0.2,3.3-0.5,5-0.6c0.7-0.1,1.1,0.1,1,0.9c-0.1,0.7,0,1.4,0,2.1
			c0,0.5-0.1,1-0.7,1c-1.2,0-2.2,0.7-3.3,0.8c-5,0.7-9.9,2.2-14.8,3.3c-5.2,1.2-10.2,3-15.2,4.8c-2.7,1-5.4,2.1-8.1,3.2
			c-4.2,1.8-8.3,3.8-12.2,6.1c-4.1,2.4-8.1,5.2-11.9,8.1c-3.5,2.7-6.6,6-8.9,9.9c-2.4,4.2-3.4,8.8-2.7,13.6c0.4,2.8,1.8,5.3,3.2,7.6
			c1.4,2.2,3.1,4.4,5.3,5.9c2.8,2,5.3,4.3,8.5,5.6c0.7-0.4,0.7-0.4,0.4-1.8c-0.8-4.1,0.2-7.9,1.8-11.5c2-4.6,5.2-8.4,9.1-11.7
			c2.5-2.1,5.3-3.8,7.8-5.8c1-0.8,2.2-1.3,3.3-1.8c2-0.9,3.8-2.1,5.9-2.8c3.7-1.3,7.3-2.7,11.1-3.6c4.5-1.1,8.9-1.9,13.5-2.1
			c2.4-0.1,4.7-0.2,7.2,0.5c-2.4,1.9-4.9,3.3-7.3,4.7c-3.9,2.3-7.9,4.5-11.8,6.8c-3,1.8-6,3.6-8.9,5.5c-4,2.7-7.7,5.8-10.4,9.8
			c-1.1,1.6-1.6,3.6-2,5.7c-0.3,1.9,0.2,3.5,1.2,5.1c1.1,1.8,2.2,3.6,3.9,5c6.2,5.3,13.3,8.7,21.6,10.5c-1.7-2.5-2.5-5.1-3.4-7.6
			c-0.7-1.8-0.2-3.8,0.3-5.7c0.7-2.6,2.1-4.6,4-6.6c2.8-2.8,6.1-4.8,9.6-6.5c3.1-1.4,6.2-2.6,9.5-3.6c3.5-1.1,7-2,10.6-2.8
			c1.6-0.3,3.1-0.8,5-1c-1.7,2.2-3.6,3.8-5.8,4.9c-3.1,1.4-6.2,2.9-9.3,4.3c-2.3,1-4.6,2.3-6.5,4c-4.3,3.8-5.7,10.4-1.9,15.7
			c2.2,3.1,5.4,4.7,8.7,6.2c7.3,3.2,15,4.7,22.8,5.9c4.5,0.7,9.1,0.8,13.6,1.1c0.9,0.4,2-0.2,2.9,0.3c0.4-0.1,0.9-0.3,1.3-0.2
			c4.9,0.6,9.8,0,14.8-0.1c5.4-0.1,10.8-1,16.1-1.8c3.8-0.5,7.6-1.4,11.3-2.4c6.4-1.7,12.7-3.9,18.5-7c3.2-1.7,6.1-3.8,8.6-6.3
			c2.5-2.6,4.5-5.7,4.4-9.7c-0.1-3.5-1.6-6.4-4-8.8c-2.1-2-4.1-4-6.6-5.6c-1.7-1.1-3.3-2.3-4.6-3.9c13-3.2,32.2,7,29,27.1
			c2-1.2,4.1-2.3,6-3.7c2.5-1.9,5.1-3.6,6.9-6.2c0.6-0.8,1.4-1.5,2.1-2.2c1.8-2,3.1-4.3,4-6.8c1.2-3.2,1.2-6.7-0.5-9.9
			c-2.2-3.9-5.6-6.6-9.2-9.1c-5.1-3.7-10.9-6.4-16.4-9.4c-3.6-1.9-7-4.2-10.5-6.4c-1.6-1-2.7-2.5-4.1-4.1
			c11.5,0.7,22.4,3.4,32.9,7.1c7,2.4,13.4,5.9,18.7,11c5.1,4.7,8.9,10.3,10.2,17.4c0.4,2,1,3.9,0.9,6c1.1-0.1,1.8-1,2.3-1.6
			c2.5-3.2,5.4-6,7.5-9.5c2.8-4.5,4.8-9.4,4.6-14.7c-0.2-4.3-1.4-8.6-4-12.2c-1.4-2-3.1-3.8-4.8-5.4c-3.8-3.6-8-6.6-12.5-9.2
			c-12.5-7.5-26.2-11.9-40.3-15.1c-2.4-0.6-4.8-1.2-7.1-2.4c-1.8-0.9-3.4-2-4.3-4.1c1.2,0.1,2.3,0.3,3.5,0.3
			c6.7,0.4,13.3,1.4,20,2.4c16.6,2.5,32.5,7.5,47.7,14.6c4.7,2.2,9.4,4.7,13.6,7.8c3.8,2.7,7.4,5.8,10.2,9.5c2,2.6,3.6,5.6,4.9,8.7
			c2.2,5.5,2.1,10.8,0.4,16.4c-1.4,4.5-3.7,8.3-6.6,11.9c-4.2,5.1-9.3,9-14.9,12.4c-2.3,1.4-4.7,2.7-7,4c-5.3,2.9-10.7,5.3-16.3,7.6
			c-4.4,1.8-8.9,3.5-13.5,5.1c-5.1,1.8-10.2,3.4-15.5,4.8c-3.6,1-7.3,1.9-11,2.8c-4,0.9-7.9,1.8-12,2.5c-4.4,0.8-8.7,1.7-13.1,2.2
			c-1.8,0.2-3.6,0.7-5.4,0.6c-1.1,0.3-2.3-0.1-3.3,0.6c-3.3,0.3-6.6,0.5-10,0.8c-1.9,0.4-3.9-0.3-5.7,0.6c-4.4,0-8.8,0.7-13.1,0.8
			c-6,0.2-12.1,0.5-18.1,0.7c-3.1,0.1-6.2-0.1-9.3,0c-6.5,0.3-12.9,0-19.4-0.2c-0.8-0.4-1.7,0.1-2.5,0c-3.1-0.2-6.1-0.6-9.2-0.7
			c-5.4-0.2-10.7-1.2-16-1.5c-5.6-0.4-10.9-1.8-16.4-2.4s-10.8-2.1-16.2-3.1c-0.2-0.1-0.4-0.1-0.7-0.1s-0.6,0.1-0.7-0.2
			c0.1,0.3,0.5,0.3,0.6,0.7c6.8,4.7,14.5,7.9,22.1,11.1c9.6,4.1,19.5,7.2,29.6,9.8c10,2.6,20,5.3,30.2,7.1
			c6.3,1.1,12.6,2.2,18.9,2.8c4.7,0.4,9.3,1.4,14,1.4c3.5,0,7,0.7,10.5,0.5c2.8-0.1,5.6,0.2,8.5,0.1c1.8,0.5,3.5-0.4,5.3-0.2
			C323.5,259.8,324.3,259.6,324.9,259.8z"/>
		<path id="XMLID_58_" d="M337.6,285.7c5.7-0.4,11.5-0.8,17.2-1.4c4.2-0.5,8.3-1.1,12.4-2.1c5.2-1.3,10.5-2.7,15.6-4.5
			c4.4-1.5,8.7-3.5,12.9-5.6c2.4-1.2,4.9-2.3,7-3.9c1.5-1.2,3.5-1.6,4.8-3.1c-0.4,3.7-0.8,7.3-2.3,10.7c-1.7,3.9-4.3,7.1-7.6,9.7
			c-2.8,2.2-6,3.9-9.5,5.1c-6.2,2.2-12.6,3.4-19.2,4c-5.4,0.5-10.8,0.7-16.2,0.9c-6.3,0.2-12.6,0.4-18.9,0.5
			c-6.6,0.1-13.1,0.1-19.7,0c-3.6-0.1-7.2-0.5-10.7-0.4c-4,0.1-7.8-0.7-11.7-0.7c-5.1,0-10.1-1.3-15.2-1.6
			c-7.6-0.6-14.9-2.7-22.3-4.1c-7.5-1.5-14.8-3.6-21.8-6.7c-6.3-2.7-12.7-5.5-18.6-9.2c-5.2-3.3-10.3-6.8-14.9-10.9
			c-5.4-4.9-10.3-10.2-14.2-16.7c4.6,0.8,8.7,2.4,12.8,3.9c6.7,2.6,12.8,6.5,19.2,9.6c10.3,5.1,20.8,9.6,32,12.6
			c12.7,3.3,25.3,7,38.2,9.3c5.8,1,11.7,2.3,17.6,2.8c4.7,0.4,9.3,1.2,14,1.3c4,0,8,0.6,11.9,0.5
			C332.8,285.6,335.2,285.4,337.6,285.7z"/>
		<path id="XMLID_57_" d="M263,248.1c-2.9-0.3-5.9-0.8-8.8-0.8c-5-0.1-10-1.2-15-1.5c-1.2-0.1-2.5-0.1-3.8-0.2
			c0.2-0.6,0.5-1.1,1.1-1.2c2.8-0.8,5.5-1.8,8.5-2.3c6.4-1.1,12.7-0.8,19.1-0.3c0.6,0.3,1.2-0.2,1.8,0c3.5,0.4,7,1,10.6,1
			c4.3,0.1,8.6,1,12.9,0.1c0.5-0.1,0.9-0.1,1.4,0c4.1,0.1,8.2-0.7,12.2-1c5-0.4,10-1,14.9-1.6c4.5-0.5,8.9-1.2,13.3-1.9
			c4.4-0.7,8.8-1.5,13.3-2.3c3.8-0.7,7.5-1.6,11.2-2.5c3.6-0.9,7.1-1.8,10.6-2.8c5-1.4,9.9-3.1,14.8-5c4.2-1.6,8.3-3.4,12.3-5.4
			c4.9-2.4,9.7-5.1,14.4-7.8c3.4-2,6.9-4.2,10-6.7s6.5-4.6,9.2-7.5c0.5-0.5,1.1-0.8,2-1.4c-0.9,4.2-1.6,7.9-3.2,11.6
			c-2.1,5-5.4,9.1-9.1,12.8c-2.1,2.1-4.6,3.9-7.1,5.6c-2.9,2-6.1,3.4-9.1,5.2c-1.3,0.8-2.8,1.2-4.2,1.8c-4.1,1.5-8.1,3.1-12.3,4.3
			c-5.5,1.5-10.9,3.1-16.5,4.3c-3.9,0.8-7.8,1.7-11.8,2.4c-4.8,0.9-9.5,1.6-14.3,2.2c-1.6,0.2-3.3,0.5-4.9,0.6
			c-1.3,0.3-2.7-0.1-3.9,0.6c-9.2,0.8-18.3,1.1-27.5,1.4c-2.2-0.4-4.5,0-6.7,0.1c-6.7-0.6-13.4-0.4-20.1-0.8
			c-3.9-0.2-7.7-0.6-11.6-0.8c-0.5,0-1,0-1.5,0.2C264.5,247.8,263.7,248.5,263,248.1z"/>
		<path id="XMLID_56_" d="M307.4,323.8c-18.4-0.8-35.7-5.6-51.9-14.4c-5.3-2.9-10.1-6.7-14.4-10.9c-0.7-0.7-1.2-1.5-1.9-2.3
			c0.3-0.5,0.8-0.3,1.2-0.3c7.7-0.5,15.1,1.2,22.4,3.4c8.2,2.4,16.1,5.4,24.4,7.3c5.8,1.3,11.7,2.8,17.7,2.9
			c5.9,0.2,11.9,0.2,17.8-0.4c4.9-0.5,9.9-1,14.8-1.5c5-0.6,10-1,14.9-1.6c3-0.4,6-0.2,9.5-0.6c-2.6,2.4-4.7,4.6-7.2,6.5
			c-4.9,3.6-10.2,6.1-15.9,8c-3.6,1.2-7.3,2-11,2.6c-5.5,1-11,1.5-16.5,1.2C310,323.6,308.7,324.3,307.4,323.8z"/>
		<path id="XMLID_49_" d="M272.6,198.5c4.5,0,8.9-0.7,13.4-0.4c0.8,0.4,1.8-0.2,2.6,0.2c3.1-0.4,6.1,0.5,9.1,0.5
			c4.6,0.1,9.1,0.6,13.4,2.4c1.7,0.7,3.4,1.3,4.6,2.9c1.8,2.3,2.2,4.1,0.5,6.4c-1,1.4-2.3,2.7-4,3.4c-3.9,1.8-8,2.6-12.2,3.5
			c-4.5,1-9.1,1.5-13.7,2.6c-0.8,0.2-1.7,0.1-2.6,0.2c-4.2,0.3-8.4,0.6-12.6,0.6c-7.8,0.1-15.2-1.1-22.2-4.5
			c-3.8-1.8-6.4-4.7-7.8-8.7c-0.2-0.5-0.5-1,0.3-1.3c1-0.4,2-0.9,3-1.3c4.8-2,9.8-3.3,14.8-4.3c3.6-0.7,7.2-1.6,10.9-1.7
			C270.9,198.8,271.7,198.8,272.6,198.5z"/>
		<path id="XMLID_48_" d="M246.8,314c2.8,1.9,5.6,2.8,8,4.5c2.5,1.7,5.4,2.6,8.3,3.6c5.6,2,11.3,4.1,17.2,4.8
			c5.5,0.7,10.8,2.1,16.4,2.1c2.9,0,5.8,0.5,8.8,0.5c6.9,0,13.7,0,20.6-0.3c1.6-0.1,3.3-0.3,5-0.2c3.5,0.1,7-0.8,10.7-0.3
			c-1.4,2.1-3.3,3.8-5.1,5.4c-3.6,3.2-7.8,5.6-12.2,7.4c-2.7,1.1-5.5,1.9-8.4,2.6c-5.1,1.1-10.3,1.7-15.6,1.8
			c-3.6,0.1-7.2-0.2-10.7-0.8c-5.3-0.8-10.8-1.5-15.7-3.9c-4.8-2.3-9.5-4.8-13.6-8.3c-0.7-0.6-1.6-1.2-2.4-1.7
			c-3.5-2.5-6.4-5.7-9-9.1C247.5,319.9,246.9,317.2,246.8,314z"/>
		<path id="XMLID_47_" d="M310.3,349.4c2.5,0.1,5,0.3,7.5,0.4c-0.8,2.5-2.8,3.8-4.3,5.6c-2.1,2.4-4.9,3.9-7.4,5.7
			c-1.7,1.2-3.8,1.8-5.7,2.4c-2.6,0.9-5.3,1.4-8.1,1.9c-4.2,0.6-8.3,0-12.4-0.4c-8.1-0.7-14.5-5-20.7-9.5c-2.4-1.7-4.8-3.7-6.6-6.3
			c-1.9-2.8-3.2-5.6-3.2-9c0-0.5-0.1-1.1-0.2-1.8c1.2,0.4,2.1,1.1,3,1.7c4.9,3,10.3,5,15.8,6.7c3.5,1.1,7.1,1.9,10.7,2.3
			c7,0.6,13.9,0.6,20.9,0.5c1.5,0,3,0,4.5-0.2C306.2,349.7,308.2,349.4,310.3,349.4z"/>
		<path id="XMLID_46_" d="M271.8,372.1c5.1,0.4,10.2-0.1,15.3-0.5c0.7-0.1,1.4-0.5,2.1,0.1c-2.2,3.3-4.3,6.6-7,9.6
			c-1.5,1.6-3.1,3.3-4.4,5.2c-2.7,3.9-4.6,8.2-5,13c0,0.2-0.1,0.3-0.2,0.6c-12.4-8.3-22-18.7-27.3-32.8c8.2,1.6,16.1,4.1,24.3,4.8
			C270.4,372.4,271.1,371.9,271.8,372.1z"/>
		<path id="XMLID_45_" class="st3" d="M324.9,259.8c-2.5-0.1-4.9,0.8-7.4,0.1C320,259.8,322.5,259.2,324.9,259.8z"/>
		<path id="XMLID_44_" class="st4" d="M337.6,285.7c-2.4,0.1-4.7,0.3-7.1,0C332.8,285.1,335.2,285.6,337.6,285.7z"/>
		<path id="XMLID_43_" class="st5" d="M298.4,249.8c2.2-0.7,4.5-0.3,6.7-0.1C302.8,249.7,300.6,250.2,298.4,249.8z"/>
		<path id="XMLID_42_" class="st6" d="M310.3,349.4c-2,0.5-4.1,0.2-6.1,0C306.2,349.4,308.2,349.4,310.3,349.4z"/>
		<path id="XMLID_41_" class="st7" d="M305,233c0.6-1,1.6-0.6,2.5-0.7c1.1-0.1,2.2,0,3.2,0C308.8,232.6,306.9,232.8,305,233z"/>
		<path id="XMLID_40_" class="st8" d="M332.6,248.3c1.2-1.2,2.6-0.6,3.9-0.6C335.2,247.9,333.9,248.4,332.6,248.3z"/>
		<path id="XMLID_39_" class="st9" d="M307.4,323.8c1.3,0.1,2.6-0.8,3.9-0.1C310,324.3,308.7,324.2,307.4,323.8z"/>
		<path id="XMLID_38_" class="st10" d="M320.7,231.6c0.9-1.3,2.2-0.5,3.3-0.6C322.9,231.2,321.8,231.4,320.7,231.6z"/>
		<path id="XMLID_37_" class="st11" d="M272.6,198.5c-0.8,0.5-1.6,0.9-2.5,0.6C270.8,198.5,271.6,198.2,272.6,198.5z"/>
		<path id="XMLID_36_" class="st12" d="M267.6,226.7c-1,0.1-1.9,0-2.9-0.3C265.7,226.7,266.8,225.6,267.6,226.7z"/>
		<path id="XMLID_35_" class="st13" d="M242.5,234.4c0.8-0.6,1.7-0.3,2.5,0C244.2,234.2,243.3,235.2,242.5,234.4z"/>
		<path id="XMLID_34_" class="st14" d="M288.6,198.4c-0.9,0-1.8,0.1-2.6-0.2C286.8,198.4,287.8,197.2,288.6,198.4z"/>
		<path id="XMLID_33_" class="st15" d="M183.8,227.1c-0.6-0.2-1.2-0.4-1.6-1.1c0.9,0.1,1.7,0.2,2.4,0.6
			C184.4,226.8,184,226.7,183.8,227.1z"/>
		<path id="XMLID_32_" class="st16" d="M289.2,371.7c-0.7,0-1.4-0.1-2.1-0.1c0.5-0.2,0.9-0.4,1.4-0.6
			C289.1,370.9,289.4,371.1,289.2,371.7z"/>
		<path id="XMLID_31_" class="st17" d="M271.8,372.1c-0.7,0.6-1.4,0.2-2.2,0C270.4,372.1,271.1,371.2,271.8,372.1z"/>
		<path id="XMLID_19_" class="st18" d="M265.9,241.8c-0.6,0.6-1.2,0.1-1.8,0C264.7,241.7,265.3,241,265.9,241.8z"/>
		<path id="XMLID_18_" class="st19" d="M263,248.1c0.7,0.3,1.6-0.9,2.2,0.3C264.4,248.4,263.7,248.4,263,248.1z"/>
		<path id="XMLID_8_" class="st20" d="M161.5,203.6c0.3,0.5,0.3,1.1,0.3,1.6c0,0.7-0.3,0.6-0.7,0.2
			C161.8,205,161.2,204.2,161.5,203.6z"/>
	</g>
</g>
<path id="XMLID_7_" class="st21" d="M335.7,232.1c0,0,28.8,12.8,16.4,30.3c-12.4,17.6-26.8,28.4-32.2,32.9s-6.4,5.7-4.4,6.7
	s5.4,3.5,2.7,5.7s-4,1.3-5.7,5.1c-1.7,3.8-1,13.1-4,14.7s-18.4,35.7-14.7,57.1l-0.6,6.1c0,0,1.9,3.5,6.3,2.2s6.7,2.9,4.4,3.8
	c-2.3,1-9,5.4-12.7,4.5s-9.4-0.1-10.4,0.1s-6.7-1.4-4-6.5l-0.7-3.2c0,0,2.7-57.1,4.4-63.2c1.7-6.1,3-19.5,1.7-28.1
	s-11.7-26.2-17.8-28.1c-6-1.9-11.7-4.1-12.7-7s-16.4-11.5-23.8-13.4s-30.8-6.7-31.5-8.9c-0.7-2.2-4-2.9,0-7.7c4-4.8-0.7-5.4-5.7-3.2
	s-11.1,3.3-11.4-1.2c-0.3-4.5,2-3.9-4-6.7c-6-2.9-3.7-2.6-6.7-4.1c-3-1.6-2.7-8.6,3-7.7s16.1,12.1,20.8,12.8
	c4.7,0.6,51.8,10.5,68.6,26.8c7.4,4.5,5.6-6.4,0-8.3s-11.3-2.9-8.3-7.7s2.9-6.7,8.3-5.4s13.5,8.9,13.1,10.9c-0.3,1.9-2.3,2.6,2,3.5
	c4.4,1,5.7,2.9,6,4.8s6,5.4,10.1,6.1c4,0.6,14.1-10.9,4.4-10.9s-9.4-1.9-6-6.4s4.4-8.9,8-7.3c3.7,1.6,7.7,5.1,9.7,7.7
	s5.4,1.6,5.4-1.9s-3-5.7-5.4-8.3c-2.3-2.6-3.4-7.3-0.3-9.6c3-2.2,3.7-7.8,9.7-6.8C323.6,213.3,334,213.6,335.7,232.1z"/>
</svg>
