<?xml version="1.0" encoding="utf-8"?>
<!-- Generator: Adobe Illustrator 19.0.0, SVG Export Plug-In . SVG Version: 6.00 Build 0)  -->
<svg version="1.1" id="Layer_1" xmlns="http://www.w3.org/2000/svg" xmlns:xlink="http://www.w3.org/1999/xlink" x="0px" y="0px"
	 viewBox="-165 -13 629 586" style="enable-background:new -165 -13 629 586;" xml:space="preserve">
<style type="text/css">
	.st0{fill:#FFFFFF;stroke:#FF0000;stroke-width:10;stroke-miterlimit:10;}
	.st1{display:none;}
	.st2{display:inline;stroke:#000000;stroke-miterlimit:10;}
	.st3{stroke:#FFFFFF;stroke-width:4;stroke-miterlimit:10;}
	.st4{fill:#FFFFFF;stroke:#FF0000;stroke-miterlimit:10;}
	.st5{fill:#FFFFFF;}
	.st6{opacity:0.3;}
	.st7{fill:#FEFEFE;}
	.st8{fill:#9A9A9A;}
	.st9{fill:#2F2F2F;}
	.st10{fill:#C7C7C7;}
	.st11{fill:#F1F1F1;}
	.st12{fill:#0E0E0E;}
	.st13{fill:#343434;}
	.st14{fill:#404040;}
	.st15{fill:#101010;}
	.st16{fill:#878787;}
	.st17{fill:#F0F0F0;}
	.st18{fill:#C4C4C4;}
	.st19{fill:#E9E9E9;}
	.st20{fill:#C3C3C3;}
	.st21{fill:#909090;}
	.st22{fill:#C2C2C2;}
	.st23{fill:#CACACA;}
	.st24{fill:#1D1D1D;}
	.st25{fill:#A3A3A3;}
	.st26{fill:#FF0000;}
	.st27{fill:#777777;}
</style>
<circle id="outer_circle_1_" class="st0" cx="149.5" cy="280.1" r="285.9"/>
<g id="Layer_2_1_" class="st1">
	<rect x="1182.4" y="-54" class="st2" width="405" height="580.1"/>
	<rect x="1104.2" y="672" class="st2" width="559.6" height="99"/>
	<rect x="1015" y="661" class="st2" width="750" height="110"/>
</g>
<g id="Layer_1_1_" class="st1">
</g>
<g id="Layer_3" class="st1">
</g>
<g id="XMLID_7_">
	<path id="XMLID_21_" class="st3" d="M1162.8,592.8c-28.9-0.4-42.5-16.4-42.5-36.1c0-22.2,17.1-38,42.5-38.6v5.6
		c-6.3,1-8.4,4.9-8.4,8.9v45.6c0,4,2.1,8,8.4,9.1V592.8z M1168.7,518c4.9,0.1,15,3.8,18.4,3.8c2,0,2.8-0.6,3.5-1.8
		c0.8-1.3,1.7-2,3.5-2c4.2,0,4.2,3,4.2,3.5v22.3c0,0.5,0,3.5-4.2,3.5c-2.8,0-4.3-1.6-4.9-3.5c-2.2-7.8-8.4-17.8-20.6-20.2
		L1168.7,518L1168.7,518z M1194.6,570.5c2.5,0,3.9,1.5,3.9,3.3c-0.3,7.9-16.1,19.4-29.8,19v-5.6c10.1-1.6,18.6-6.5,21.5-13.6
		C1191,571.9,1191.8,570.5,1194.6,570.5z"/>
	<path id="XMLID_25_" class="st3" d="M1228.1,566.1l-17.9-31.2c-0.8-1.6-1.4-2.7-3.4-3.7c-1.5-0.6-2.7-1-2.7-2.5
		c0-2.7,3.8-2.5,6.3-2.5h29.4c2.6,0,6.5-0.2,6.5,2.6c0,1.3-1.3,2-2.6,2.6c-1.3,0.5-2.3,0.9-2.3,2.1c0,1.1,0.6,2.3,1.2,3.3l14.7,24.6
		v20.1c0,3.2-0.1,3.7,4,4.7c1.5,0.3,2.6,1.1,2.6,2.3c0,2.5-3.9,2.7-4.4,2.7h-33.6c-0.5,0-4.4-0.2-4.4-2.7c0-1.2,1.1-2,2.6-2.3
		c4.2-1,4-1.5,4-4.7L1228.1,566.1L1228.1,566.1z M1255.9,550.5l6.2-10.1c1-1.5,1.8-2.9,1.8-4.6c0-5.2-8.1-3.3-8.1-6.9
		c0-3.1,4.9-2.7,7.7-2.7h13.2c2.7,0,6.1,0.2,6.1,2.8c0,1.5-1.3,2.1-3,2.6c-4.9,1.5-6.2,2.8-8.4,6.4l-11.6,18.7L1255.9,550.5z"/>
	<path id="XMLID_28_" class="st3" d="M1324.4,592.6c-26.2-0.3-38.5-14.9-38.5-32.7c0-20.1,15.5-34.4,38.5-35v5
		c-5.7,0.9-7.6,4.4-7.6,8.1v41.3c0,3.7,1.9,7.2,7.6,8.3V592.6z M1329.7,524.9c4.4,0.1,13.6,3.5,16.6,3.5c1.8,0,2.5-0.5,3.2-1.7
		c0.7-1.1,1.5-1.8,3.2-1.8c3.8,0,3.8,2.7,3.8,3.1v20.2c0,0.4,0,3.1-3.8,3.1c-2.5,0-3.9-1.5-4.4-3.1c-2-7-7.6-16.1-18.7-18.3
		L1329.7,524.9L1329.7,524.9z M1353.2,572.4c2.3,0,3.6,1.4,3.6,3c-0.2,7.1-14.6,17.6-27,17.2v-5c9.2-1.5,16.9-5.9,19.5-12.4
		C1350,573.7,1350.7,572.4,1353.2,572.4z"/>
	<path id="XMLID_53_" class="st3" d="M1401.8,591.3h-31.4c-0.5,0-4.4-0.2-4.4-2.7c0-1.2,1.1-2,2.6-2.3c4.2-1,4-1.5,4-4.7V536
		c0-3.2,0.1-3.7-4-4.7c-1.5-0.3-2.6-1.1-2.6-2.4c0-2.5,3.9-2.7,4.4-2.7h33.6c0.5,0,4.4,0.2,4.4,2.7c0,1.2-1.1,2-2.6,2.4
		c-4.2,1-4,1.5-4,4.7V591.3L1401.8,591.3z M1407.1,586.3c9.6-1,15.1-7,17.6-15.1c0.6-1.9,2-2.4,4.5-2.4c2.7,0,3,1.7,3,3.3v19.3
		h-25.1V586.3z"/>
	<path id="XMLID_69_" class="st3" d="M1471.8,530c-5.6,1.5-6.1,4.1-6.1,6.3v45.1c0,2.2,0.5,4.8,6.1,6.3v5c-25.2-1.7-37-16.5-37-33.9
		s11.8-32.2,37-33.9V530z M1477.1,587.6c5.6-1.5,6.1-4.1,6.1-6.3v-45.1c0-2.2-0.5-4.8-6.1-6.3v-5c25.2,1.7,37,16.5,37,33.9
		s-11.8,32.2-37,33.9V587.6z"/>
	<path id="XMLID_75_" class="st3" d="M1530.4,542.6h0.2l6.7,8.7v26.3c1.9,10.9,9.5,7.5,9.5,11.2c0,2.7-4.9,2.5-6.2,2.5h-13.5
		c-1.3,0-6.2,0.2-6.2-2.5c0-3.7,7.6-0.3,9.5-11.2V542.6z M1592.3,570.3v21.1h-17.7l-43.5-54.9c-1.9-2.4-2.5-3.7-6.4-4.7
		c-2-0.5-3.6-0.9-3.6-2.8c0-2.6,3.6-2.6,6.1-2.7h30.5L1592.3,570.3z M1585.4,542c0-12.4-9.7-9.1-9.7-13.1c0-2.4,3.9-2.6,5.1-2.6
		h16.2c1.2,0,5.1,0.2,5.1,2.6c0,4-9.7,0.7-9.7,13.1v21.1h-0.2l-6.7-8.8V542H1585.4z"/>
	<path id="XMLID_80_" class="st3" d="M1615.9,519.4h34.6v71.9h-34.6c-0.5,0-4.9-0.2-4.9-3c0-1.3,1.2-2.2,2.9-2.6
		c4.6-1.1,4.5-1.6,4.5-5.2v-50.3c0-3.6,0.1-4.1-4.5-5.2c-1.7-0.4-2.9-1.3-2.9-2.6C1611.1,519.6,1615.4,519.4,1615.9,519.4z
		 M1656.5,519.4h29.3v19.5c0,0.5-0.1,2.3-4.1,2.3c-2.2,0-2.9-1-3.5-2.4c-3.4-7.8-10.1-12.5-21.7-13.8L1656.5,519.4L1656.5,519.4z
		 M1656.5,551.5c5.5-1.1,8-4.8,9.2-8.5c0.7-1.6,1.4-3.2,4.2-3.2c4.1,0,3.4,3.5,3.4,4.2v20.8c0,0.8,0.7,4.2-3.4,4.2
		c-2.8,0-3.5-1.5-4.2-3.2c-1.2-3.7-3.7-7.4-9.2-8.5V551.5z M1656.5,585.7c10.6-1,18.8-6.2,22.3-13.9c0.9-1.4,1.7-3,4.1-3
		c4.2,0,3.8,2.9,3.8,3.3v19.2h-30.2L1656.5,585.7L1656.5,585.7z"/>
</g>
<g id="XMLID_82_">
	<path id="XMLID_132_" class="st4" d="M1125.5,653v-6h6.5v-23.4h-6.5v-6h25.1l11,20.7l11-20.7h25.5v6h-6.5V647h6.5v6H1173v-6h6
		v-23.4h-1.2l-15.5,29.4h-5.4l-15.7-29.4h-1.2V647h6.5v6H1125.5z"/>
	<path id="XMLID_134_" class="st4" d="M1251.6,647v6H1227v-6h6.4l-2.4-6.1h-13l-2.7,6.1h6.7v6h-22.1v-6h6.2l9.7-23.4h-6.6v-6h32.6v6
		h-6.7l10.5,23.4H1251.6z M1229,635.7l-4.2-10.7l-4.5,10.7H1229z"/>
	<path id="XMLID_137_" class="st4" d="M1305.2,647v6H1290l-11.3-15.5h-5.7v9.5h6.2v6h-26.1v-6h6.9v-23.4h-6.9v-6h30.1
		c5.7,0,9.8,1,12.3,3s3.8,4.3,3.8,6.9c0,4-2.9,7-8.7,8.8l8.1,10.7H1305.2z M1273,631.8h4.5c5.5,0,8.3-1.4,8.3-4.2
		c0-1.4-0.6-2.4-1.9-3.1c-1.3-0.7-3-1-5.2-1h-5.7L1273,631.8L1273,631.8z"/>
	<path id="XMLID_140_" class="st4" d="M1314.1,653v-6h7.5v-23.4h-7.5v8.2h-8.6v-14.2h45.3v14.2h-8.5v-8.2h-7.7V647h7.5v6H1314.1z"/>
	<path id="XMLID_142_" class="st4" d="M1354.7,653v-6h7.6v-23.4h-7.6v-6h28.2v6h-7.6V647h7.6v6H1354.7z"/>
	<path id="XMLID_144_" class="st4" d="M1435.9,647v6h-24.6v-6h6.4l-2.4-6.1h-13l-2.7,6.1h6.7v6h-22.1v-6h6.2l9.7-23.4h-6.6v-6h32.6
		v6h-6.7l10.5,23.4H1435.9z M1413.3,635.7l-4.2-10.7l-4.5,10.7H1413.3z"/>
	<path id="XMLID_147_" class="st4" d="M1437.8,653v-6h7.1v-23.4h-7.1v-6h27.4v6h-7.3V647h14.8v-10.9h9.7V653H1437.8z"/>
	<path id="XMLID_149_" class="st4" d="M1553.1,647v6h-24.6v-6h6.4l-2.4-6.1h-13l-2.7,6.1h6.7v6h-22.1v-6h6.2l9.7-23.4h-6.6v-6h32.6
		v6h-6.7l10.5,23.4H1553.1z M1530.5,635.7l-4.2-10.7l-4.5,10.7H1530.5z"/>
	<path id="XMLID_152_" class="st4" d="M1606.8,647v6h-15.2l-11.3-15.5h-5.7v9.5h6.2v6h-26.1v-6h6.9v-23.4h-6.9v-6h30.1
		c5.7,0,9.8,1,12.3,3s3.8,4.3,3.8,6.9c0,4-2.9,7-8.7,8.8l8.1,10.7H1606.8z M1574.6,631.8h4.5c5.5,0,8.3-1.4,8.3-4.2
		c0-1.4-0.6-2.4-1.9-3.1c-1.3-0.7-3-1-5.2-1h-5.6v8.3H1574.6z"/>
	<path id="XMLID_155_" class="st4" d="M1615.7,653v-6h7.5v-23.4h-7.5v8.2h-8.6v-14.2h45.3v14.2h-8.5v-8.2h-7.7V647h7.5v6H1615.7z"/>
	<path id="XMLID_157_" class="st4" d="M1658.1,653v-12.1h8.5c0.1,2.2,0.9,3.8,2.4,4.9c1.5,1,3.3,1.6,5.2,1.6c1.5,0,2.8-0.4,3.9-1.1
		c1.1-0.8,1.6-1.6,1.6-2.7c0-1.1-0.5-2-1.5-2.7s-2.9-1.6-5.6-2.5c-5.8-2-9.7-3.7-11.8-5.2c-2.1-1.5-3.1-3.6-3.1-6.1
		c0-3.1,1.4-5.5,4.1-7.2s5.8-2.6,9.3-2.6c4,0,7.1,1.1,9.2,3.3v-2.9h8.4v10.8h-8.4c-0.3-1.7-1.1-2.9-2.4-3.9
		c-1.4-0.9-2.9-1.4-4.7-1.4c-1.4,0-2.6,0.3-3.5,0.8c-1,0.5-1.4,1.2-1.4,2.1c0,0.7,0.4,1.4,1.2,2.1c0.8,0.7,3.1,1.6,6.9,2.8
		c3.7,1.2,6.5,2.2,8.5,3.2c2,0.9,3.5,2.2,4.7,3.7c1.1,1.5,1.7,3.2,1.7,5.2c0,3.5-1.4,6.1-4.3,7.9c-2.9,1.8-6.3,2.7-10.2,2.7
		c-4.4,0-7.8-1.1-10.1-3.5v3h-8.6L1658.1,653L1658.1,653z"/>
</g>
<g id="XMLID_76_">
	<path id="XMLID_87_" class="st5" d="M1090.9,715.3v-5.5h4.9v-21.6h-4.9v-5.5h15.3c3.2,0,5.8,0.2,7.8,0.6c2,0.4,3.8,1.3,5.6,2.6
		c1.8,1.4,3.2,3.2,4.3,5.5c1.1,2.3,1.6,4.8,1.6,7.6c0,2.3-0.4,4.4-1.1,6.5c-0.8,2.1-1.7,3.7-2.8,5s-2.5,2.3-4,3
		c-1.6,0.7-3,1.2-4.3,1.4s-3.3,0.3-6.1,0.3h-16.3V715.3z M1104.2,709.8h2c2.4,0,4.4-0.3,5.8-1c1.4-0.6,2.6-1.8,3.4-3.4
		c0.9-1.6,1.3-3.7,1.3-6.3c0-2.5-0.4-4.6-1.3-6.3s-2.1-2.9-3.5-3.6c-1.5-0.7-3.4-1-5.7-1h-2L1104.2,709.8L1104.2,709.8z"/>
	<path id="XMLID_90_" class="st5" d="M1147.6,708.5l5.6,1.8c-2.3,3.7-6,5.5-10.9,5.5c-4,0-7-1.1-9.3-3.2c-2.2-2.1-3.3-4.9-3.3-8.3
		c0-3.5,1.1-6.4,3.4-8.8c2.3-2.3,5.2-3.5,8.7-3.5c2.6,0,4.8,0.7,6.7,2s3.2,2.9,3.9,4.9c0.7,1.9,1.1,4.1,1.1,6.5h-16.7
		c0.1,2.1,0.8,3.5,1.9,4.4c1.2,0.9,2.4,1.3,3.7,1.3C1144.2,711.1,1145.9,710.3,1147.6,708.5z M1146.3,701.5
		c-0.2-1.3-0.7-2.3-1.5-3.2s-1.9-1.3-3.3-1.3c-2.6,0-4.2,1.5-4.6,4.6L1146.3,701.5L1146.3,701.5z"/>
	<path id="XMLID_93_" class="st5" d="M1165.8,715.6l-7.6-17.8h-3.2v-5.2h13.6v5.2h-2.8l3.5,10.3l4.1-10.3h-2.9v-5.2h11.9v5.2h-3.2
		l-7.3,17.8H1165.8z"/>
	<path id="XMLID_95_" class="st5" d="M1200.9,708.5l5.6,1.8c-2.3,3.7-6,5.5-10.9,5.5c-4,0-7-1.1-9.3-3.2c-2.2-2.1-3.3-4.9-3.3-8.3
		c0-3.5,1.1-6.4,3.4-8.8c2.3-2.3,5.2-3.5,8.7-3.5c2.6,0,4.8,0.7,6.7,2s3.2,2.9,3.9,4.9c0.7,1.9,1.1,4.1,1.1,6.5H1190
		c0.1,2.1,0.8,3.5,1.9,4.4c1.2,0.9,2.4,1.3,3.7,1.3C1197.4,711.1,1199.1,710.3,1200.9,708.5z M1199.5,701.5
		c-0.2-1.3-0.7-2.3-1.5-3.2s-1.9-1.3-3.3-1.3c-2.6,0-4.2,1.5-4.6,4.6L1199.5,701.5L1199.5,701.5z"/>
	<path id="XMLID_98_" class="st5" d="M1210,715.3v-5.2h3.5V688h-3.5v-5.2h10.7v27.3h3.2v5.2H1210z"/>
	<path id="XMLID_100_" class="st5" d="M1238.7,715.8c-3.3,0-6.1-1.1-8.4-3.2c-2.3-2.1-3.4-5-3.4-8.7s1.1-6.6,3.4-8.7
		c2.3-2.1,5.1-3.2,8.4-3.2s6.1,1.1,8.4,3.2s3.4,5,3.4,8.7c0,3.6-1.1,6.5-3.4,8.7C1244.9,714.8,1242.1,715.8,1238.7,715.8z
		 M1238.7,710.2c1.3,0,2.4-0.5,3.2-1.5s1.2-2.6,1.2-4.8c0-1.9-0.4-3.4-1.2-4.5s-1.9-1.6-3.3-1.6c-3,0-4.4,2.2-4.4,6.5
		c0,1.8,0.4,3.2,1.1,4.4C1236.1,709.6,1237.2,710.2,1238.7,710.2z"/>
	<path id="XMLID_103_" class="st5" d="M1268.5,720.3v5.2h-15.4v-5.2h3.8v-22.4h-3.2v-5.2h10.3v2.8c2-2.1,4.2-3.2,6.7-3.2
		c3,0,5.3,1.2,7,3.6c1.7,2.4,2.6,5.2,2.6,8.3c0,3.4-0.9,6.1-2.6,8.3c-1.8,2.2-4.1,3.3-7,3.3c-2.4,0-4.6-0.9-6.6-2.8v7.3
		L1268.5,720.3L1268.5,720.3z M1272.9,704.1c0-2-0.4-3.5-1.2-4.4c-0.8-1-1.9-1.5-3.2-1.5s-2.4,0.5-3.3,1.5c-0.8,1-1.3,2.5-1.3,4.5
		c0,1.8,0.4,3.2,1.3,4.3c0.8,1.1,1.9,1.6,3.3,1.6c1.3,0,2.3-0.5,3.2-1.5C1272.5,707.7,1272.9,706.1,1272.9,704.1z"/>
	<path id="XMLID_106_" class="st5" d="M1354.2,715.3v-5.5h4.9v-21.6h-4.9v-5.5h18.2v5.5h-4.9v21.6h4.9v5.5H1354.2z"/>
	<path id="XMLID_108_" class="st5" d="M1375.1,697.9v-5.2h10.6v2.1c2.2-1.6,4.4-2.5,6.6-2.5c4.5,0,6.8,2.9,6.8,8.8v9h3.4v5.2H1392
		v-13.7c0-1.2-0.2-2.1-0.5-2.5c-0.3-0.5-0.9-0.7-1.6-0.7c-1.3,0-2.7,0.5-4.1,1.5v10.2h3.5v5.2h-14v-5.2h3.4v-12.2L1375.1,697.9
		L1375.1,697.9z"/>
	<path id="XMLID_110_" class="st5" d="M1405.8,715.3v-7.8h5.2c0,1.1,0.5,1.9,1.5,2.5c0.9,0.6,2.1,0.9,3.4,0.9c1.2,0,2.1-0.2,2.7-0.6
		c0.7-0.4,1-0.9,1-1.6c0-0.6-0.3-1.1-0.9-1.4c-0.6-0.3-1.8-0.6-3.5-0.9c-3.6-0.6-6.2-1.5-7.9-2.7c-1.7-1.2-2.4-2.8-2.4-4.8
		c0-1.9,0.8-3.4,2.3-4.7s3.5-1.9,6-1.9c2,0,3.9,0.4,5.7,1.1v-0.8h5.1v6.6h-5.1c-0.5-1.6-2.1-2.4-4.9-2.4c-2.1,0-3.1,0.6-3.1,1.7
		c0,0.4,0.2,0.8,0.6,1s1.5,0.5,3.3,0.8c2.8,0.5,4.8,1,6.2,1.5c1.4,0.5,2.5,1.3,3.3,2.4c0.8,1.1,1.2,2.5,1.2,4c0,2.2-0.8,4-2.4,5.4
		s-3.8,2.1-6.7,2.1c-2.7,0-4.5-0.6-5.5-1.6v1.1h-5.1L1405.8,715.3L1405.8,715.3z"/>
	<path id="XMLID_112_" class="st5" d="M1443.5,720.3v5.2H1428v-5.2h3.8v-22.4h-3.2v-5.2h10.4v2.8c2-2.1,4.2-3.2,6.7-3.2
		c3,0,5.3,1.2,7,3.6c1.7,2.4,2.6,5.2,2.6,8.3c0,3.4-0.9,6.1-2.6,8.3c-1.8,2.2-4.1,3.3-7,3.3c-2.4,0-4.6-0.9-6.6-2.8v7.3
		L1443.5,720.3L1443.5,720.3z M1447.9,704.1c0-2-0.4-3.5-1.2-4.4c-0.8-1-1.9-1.5-3.2-1.5s-2.4,0.5-3.3,1.5c-0.8,1-1.3,2.5-1.3,4.5
		c0,1.8,0.4,3.2,1.3,4.3c0.8,1.1,1.9,1.6,3.3,1.6c1.3,0,2.3-0.5,3.2-1.5C1447.4,707.7,1447.9,706.1,1447.9,704.1z"/>
	<path id="XMLID_115_" class="st5" d="M1458.9,697.9v-5.2h10.6v17.4h3.3v5.2h-13.9v-5.2h3.4v-12.2H1458.9z M1462.1,686.2
		c0-1.1,0.4-2,1.1-2.8c0.8-0.8,1.7-1.2,2.8-1.2c1.1,0,2,0.4,2.8,1.2s1.1,1.7,1.1,2.8s-0.4,2-1.1,2.8c-0.8,0.8-1.7,1.2-2.8,1.2
		c-1.1,0-2-0.4-2.8-1.2C1462.4,688.2,1462.1,687.2,1462.1,686.2z"/>
	<path id="XMLID_118_" class="st5" d="M1490.8,710.1v5.2H1475v-5.2h4.1v-12.2h-3.9v-5.2h10.4v5.8c0.4-1.7,1.3-3.1,2.7-4.3
		c1.4-1.2,3.1-1.8,5.1-1.8c0.3,0,0.7,0,1.2,0v6.8c-1.8,0-3.3,0.2-4.4,0.6c-1.1,0.4-2.1,1.3-2.8,2.7s-1.1,3-1.1,4.9v2.8L1490.8,710.1
		L1490.8,710.1z"/>
	<path id="XMLID_120_" class="st5" d="M1514.8,708.5l5.6,1.8c-2.3,3.7-6,5.5-10.9,5.5c-4,0-7-1.1-9.3-3.2c-2.2-2.1-3.3-4.9-3.3-8.3
		c0-3.5,1.1-6.4,3.4-8.8c2.3-2.3,5.2-3.5,8.7-3.5c2.6,0,4.8,0.7,6.7,2c1.9,1.3,3.2,2.9,3.9,4.9s1.1,4.1,1.1,6.5H1504
		c0.1,2.1,0.8,3.5,1.9,4.4c1.2,0.9,2.4,1.3,3.7,1.3C1511.3,711.1,1513,710.3,1514.8,708.5z M1513.4,701.5c-0.2-1.3-0.7-2.3-1.5-3.2
		s-1.9-1.3-3.3-1.3c-2.6,0-4.2,1.5-4.6,4.6L1513.4,701.5L1513.4,701.5z"/>
	<path id="XMLID_123_" class="st5" d="M1616.1,704.4v-5.5h15.1c0,3.9-0.7,7.1-2.1,9.4c-1.4,2.3-3.5,4.1-6.2,5.5
		c-2.7,1.3-5.7,2-9.1,2c-5.8,0-10.3-1.6-13.4-4.7c-3.1-3.2-4.7-7.2-4.7-12c0-3.4,0.8-6.3,2.3-8.9c1.5-2.6,3.6-4.5,6.2-5.8
		s5.4-2,8.5-2c4.3,0,7.7,1.1,10.1,3.2v-2.7h5.5v11.6h-5.5c-0.6-1.9-1.7-3.5-3.4-4.6c-1.7-1.1-3.5-1.7-5.5-1.7
		c-2.6,0-4.8,0.9-6.6,2.7c-1.8,1.8-2.7,4.4-2.7,7.6c0,3.7,0.9,6.5,2.8,8.5c1.8,1.9,4.1,2.9,6.7,2.9c1.9,0,3.6-0.5,4.8-1.4
		c1.3-1,2.2-2.3,2.7-4L1616.1,704.4L1616.1,704.4z"/>
	<path id="XMLID_125_" class="st5" d="M1650.5,710.1v5.2h-15.8v-5.2h4.1v-12.2h-3.9v-5.2h10.4v5.8c0.4-1.7,1.3-3.1,2.7-4.3
		c1.4-1.2,3.1-1.8,5.1-1.8c0.3,0,0.7,0,1.2,0v6.8c-1.8,0-3.3,0.2-4.4,0.6c-1.1,0.4-2.1,1.3-2.8,2.7s-1.1,3-1.1,4.9v2.8L1650.5,710.1
		L1650.5,710.1z"/>
	<path id="XMLID_127_" class="st5" d="M1668.3,715.8c-3.3,0-6.1-1.1-8.4-3.2c-2.3-2.1-3.4-5-3.4-8.7s1.1-6.6,3.4-8.7
		s5.1-3.2,8.4-3.2s6.1,1.1,8.4,3.2s3.4,5,3.4,8.7c0,3.6-1.1,6.5-3.4,8.7C1674.5,714.8,1671.7,715.8,1668.3,715.8z M1668.3,710.2
		c1.3,0,2.4-0.5,3.2-1.5c0.8-1,1.2-2.6,1.2-4.8c0-1.9-0.4-3.4-1.2-4.5c-0.8-1.1-1.9-1.6-3.3-1.6c-3,0-4.4,2.2-4.4,6.5
		c0,1.8,0.4,3.2,1.1,4.4C1665.7,709.6,1666.8,710.2,1668.3,710.2z"/>
	<path id="XMLID_130_" class="st5" d="M1690,715.6l-5.9-17.8h-2.8v-5.2h12.2v5.2h-2.4l2.8,8.4l4.6-13.6h5.9l4.4,13.6l2.8-8.4h-2.5
		v-5.2h10.8v5.2h-2.8l-5.8,17.8h-6.2l-4.4-13.3l-4.3,13.3H1690z"/>
</g>
<g id="XMLID_1_" class="st6">
	<g id="XMLID_4_">
		<path id="XMLID_74_" class="st7" d="M155.5,430.4c-66.5,0-133,0-199.5,0c-1.7,0-1.9-0.5-1.9-2c0-116.1,0-232.1,0-348.2
			c0-1.7,0.5-1.9,2-1.9C89,78.3,213.6,83,346.5,83c1.9,0,0,5.3,0,7c0,116,10.5,222.5,10.5,338.5c0,1.7-0.5,1.9-2,1.9
			C288.5,430.3,222,430.4,155.5,430.4z"/>
		<path id="XMLID_73_" d="M207.2,254.1c4.9-0.2,9.9-0.2,14.8-0.6c5.8-0.4,11.6-1.1,17.3-1.9c5.4-0.7,10.8-1.5,16.2-2.7
			c4.3-1,8.6-1.8,12.9-3c6.2-1.8,12.5-3.6,18.6-5.7c5-1.7,9.9-3.7,14.7-5.8c5.3-2.3,10.5-4.7,15.5-7.5c2.2-1.2,4.6-2,6.6-3.8
			c-0.8,3.5-1.5,6.9-3.1,10c-1.9,3.8-4.2,7.3-7.1,10.5c-2.6,2.8-5.5,5.2-8.7,7.1c-3.6,2.2-7.4,4.1-11.5,5.6
			c-3.8,1.4-7.7,2.7-11.6,3.7c-4.9,1.3-9.8,2.2-14.7,3.1c-5.2,1-10.3,1.8-15.5,2.8c-5.3,1-10.6,1.8-15.9,2.5
			c-6.1,0.8-12.3,1.2-18.4,1.6c-3.9,0.2-7.8-0.1-11.6,0.2c-3.9,0.4-7.6-0.3-11.4-0.1c-4.8,0.2-9.6-0.7-14.3-0.7
			c-5.7,0-11.2-1.4-16.8-1.6c-7.3-0.3-14.4-2.3-21.6-3.2c-11.9-1.5-23.4-4.9-35-7.7c-8-1.9-16-4.1-23.9-6.6c-8-2.6-16-5-23.7-8.3
			c-7.9-3.4-16.1-6.6-23.3-11.3c-7.3-4.8-14-10.3-19-17.5c-0.7-1-1.5-2.1-1.9-3.2c-0.9-2.6-3-3.6-5.4-3.9
			c-7.1-1.2-13.7-3.7-20.2-6.7c-4.2-2-8.6-3.7-12.5-6.2c-5.5-3.4-10.3-7.6-14-12.9c-3.5-5-5.9-10.5-5.2-17.1
			c0.7-6.6,3.6-11.9,7.5-16.8c4.6-5.7,10.4-9.9,16.5-13.7c6.2-3.9,12.8-7.1,19.3-10.6c1.9-1,4-1.8,6-2.6c4.6-1.7,9.1-3.7,13.7-5.2
			c3.9-1.2,7.7-2.5,11.6-3.6c4.4-1.4,8.8-2.5,13.3-3.5c4.8-1.1,9.7-2.1,14.6-3c5.5-1,11-1.9,16.6-2.5c2-0.2,4-0.6,6-0.7
			c0.9-0.1,1.3,0.2,1.2,1.1c-0.1,0.8,0,1.7,0,2.5c0,0.6-0.1,1.2-0.8,1.2c-1.4,0-2.6,0.8-4,1c-6.1,0.8-11.9,2.6-17.8,4
			c-6.2,1.5-12.3,3.6-18.3,5.7c-3.3,1.2-6.5,2.5-9.7,3.9c-5,2.2-10,4.5-14.7,7.3c-5,2.9-9.8,6.2-14.3,9.8c-4.2,3.3-8,7.2-10.7,11.9
			c-2.9,5-4.1,10.5-3.3,16.3c0.5,3.3,2.1,6.3,3.9,9.1c1.7,2.7,3.7,5.3,6.3,7.1c3.3,2.3,6.4,5.2,10.2,6.7c0.8-0.5,0.8-0.5,0.5-2.2
			c-0.9-4.9,0.2-9.5,2.1-13.9c2.4-5.6,6.3-10.1,10.9-14.1c3-2.5,6.3-4.6,9.4-6.9c1.2-0.9,2.7-1.5,4-2.1c2.4-1.1,4.6-2.5,7.1-3.3
			c4.4-1.5,8.7-3.2,13.3-4.3c5.4-1.3,10.7-2.3,16.3-2.5c2.9-0.1,5.6-0.2,8.7,0.5c-2.9,2.3-5.8,3.9-8.7,5.7
			c-4.7,2.8-9.5,5.4-14.2,8.2c-3.6,2.1-7.2,4.3-10.7,6.7c-4.8,3.2-9.2,7-12.4,11.8c-1.3,2-2,4.4-2.4,6.8c-0.4,2.2,0.3,4.3,1.4,6.1
			c1.3,2.2,2.7,4.3,4.7,6.1c7.4,6.4,16,10.5,26,12.7c-2.1-3-3-6.1-4.1-9.1c-0.8-2.2-0.3-4.6,0.3-6.8c0.8-3.1,2.5-5.6,4.7-7.9
			c3.4-3.4,7.3-5.7,11.5-7.7c3.7-1.7,7.5-3.1,11.4-4.4c4.2-1.3,8.4-2.4,12.7-3.4c1.9-0.4,3.7-0.9,6-1.2c-2.1,2.6-4.3,4.6-7,5.8
			c-3.7,1.7-7.4,3.5-11.2,5.2c-2.8,1.2-5.5,2.8-7.8,4.8c-5.2,4.6-6.9,12.5-2.3,18.9c2.7,3.7,6.4,5.7,10.4,7.4
			c8.8,3.8,18.1,5.6,27.4,7.1c5.4,0.8,10.9,1,16.4,1.3c1.1,0.5,2.4-0.2,3.5,0.3c0.5-0.1,1.1-0.3,1.6-0.3c5.9,0.7,11.8,0,17.7-0.1
			c6.5-0.2,13-1.3,19.4-2.1c4.6-0.6,9.1-1.7,13.5-2.9c7.7-2,15.2-4.6,22.3-8.4c3.8-2,7.3-4.5,10.3-7.6s5.4-6.8,5.3-11.6
			c-0.1-4.3-1.9-7.7-4.8-10.5c-2.5-2.4-5-4.8-7.9-6.7c-2-1.3-4-2.7-5.5-4.6c15.6-3.8,38.7,8.4,34.9,32.6c2.4-1.5,5-2.8,7.2-4.5
			c3-2.3,6.1-4.4,8.3-7.5c0.7-1,1.7-1.8,2.5-2.7c2.2-2.4,3.7-5.2,4.8-8.1c1.4-3.9,1.5-8-0.6-11.9c-2.6-4.7-6.8-7.9-11.1-11
			c-6.2-4.5-13.1-7.7-19.7-11.2c-4.3-2.3-8.5-5-12.6-7.6c-1.9-1.2-3.2-3.1-4.9-4.9c13.9,0.9,26.9,4,39.6,8.5
			c8.4,2.9,16,7.1,22.5,13.2c6.1,5.7,10.7,12.3,12.3,20.9c0.4,2.4,1.2,4.7,1.1,7.2c1.3-0.2,2.1-1.1,2.8-2c3-3.8,6.5-7.2,9-11.4
			c3.3-5.4,5.8-11.3,5.5-17.7c-0.2-5.2-1.7-10.3-4.8-14.7c-1.7-2.3-3.7-4.5-5.8-6.5c-4.5-4.3-9.6-7.9-15-11.1
			c-15.1-9-31.5-14.3-48.4-18.2c-2.9-0.7-5.8-1.5-8.5-2.9c-2.1-1.1-4-2.4-5.2-4.9c1.5,0.2,2.8,0.3,4.2,0.4c8.1,0.5,16,1.7,24,2.9
			c20,3,39,9,57.3,17.6c5.7,2.7,11.3,5.7,16.4,9.4c4.5,3.3,8.8,6.9,12.3,11.4c2.4,3.2,4.3,6.7,5.9,10.5c2.7,6.6,2.6,13,0.5,19.7
			c-1.7,5.4-4.4,10-8,14.2c-5.1,6.1-11.1,10.9-17.9,14.9c-2.8,1.6-5.6,3.2-8.4,4.8c-6.3,3.5-12.9,6.3-19.6,9.1
			c-5.3,2.2-10.7,4.3-16.2,6.2c-6.1,2.1-12.3,4.1-18.6,5.8c-4.4,1.2-8.8,2.3-13.2,3.3c-4.8,1.1-9.5,2.1-14.4,3
			c-5.2,0.9-10.4,2-15.7,2.6c-2.2,0.2-4.3,0.8-6.5,0.8c-1.3,0.4-2.7-0.2-3.9,0.7c-4,0.3-8,0.6-12,0.9c-2.3,0.5-4.7-0.4-6.9,0.7
			c-5.3,0.1-10.5,0.8-15.8,1c-7.3,0.3-14.5,0.5-21.8,0.9c-3.8,0.2-7.5-0.1-11.2,0.1c-7.8,0.4-15.5,0-23.3-0.2c-1-0.4-2,0.2-3,0
			c-3.7-0.3-7.4-0.7-11.1-0.8c-6.5-0.2-12.8-1.4-19.3-1.9c-6.7-0.4-13.1-2.1-19.8-2.9c-6.6-0.7-13-2.5-19.4-3.7
			c-0.3-0.1-0.5-0.1-0.8-0.1s-0.7,0.2-0.9-0.2c0.1,0.4,0.6,0.4,0.7,0.8c8.2,5.7,17.4,9.4,26.5,13.3c11.5,4.9,23.4,8.7,35.5,11.8
			c12,3.1,24,6.4,36.3,8.5c7.5,1.3,15.1,2.7,22.7,3.4c5.6,0.5,11.2,1.6,16.8,1.7c4.2,0,8.4,0.8,12.6,0.6c3.4-0.2,6.8,0.2,10.2,0.1
			c2.2,0.6,4.3-0.5,6.4-0.3C205.6,254,206.4,253.8,207.2,254.1z"/>
		<path id="XMLID_72_" d="M222.4,285.1c6.9-0.5,13.8-0.9,20.7-1.7c5-0.6,10-1.4,14.9-2.6c6.3-1.5,12.6-3.2,18.7-5.4
			c5.3-1.8,10.5-4.2,15.5-6.7c2.9-1.4,5.9-2.8,8.4-4.7c1.8-1.4,4.1-1.9,5.8-3.7c-0.5,4.5-0.9,8.8-2.7,12.9
			c-2.1,4.7-5.2,8.6-9.1,11.7c-3.4,2.7-7.2,4.7-11.4,6.2c-7.5,2.7-15.2,4.1-23.1,4.8c-6.5,0.6-13,0.9-19.5,1.1
			c-7.6,0.3-15.1,0.5-22.7,0.7c-7.9,0.1-15.8,0.1-23.7,0c-4.3-0.1-8.6-0.6-12.9-0.5c-4.8,0.1-9.4-0.9-14.1-0.9
			c-6.2,0-12.1-1.5-18.2-2c-9.1-0.7-17.9-3.2-26.8-5c-9-1.8-17.8-4.4-26.2-8c-7.6-3.3-15.3-6.6-22.4-11c-6.3-3.9-12.4-8.1-17.9-13.1
			c-6.4-5.9-12.3-12.3-17.1-20c5.5,1,10.4,2.8,15.4,4.7c8.1,3.1,15.3,7.8,23,11.5c12.4,6.1,25,11.6,38.5,15.1
			c15.2,4,30.3,8.5,45.8,11.2c7,1.2,14.1,2.8,21.2,3.3c5.6,0.4,11.2,1.5,16.8,1.5c4.8,0,9.6,0.7,14.4,0.6
			C216.7,285,219.6,284.8,222.4,285.1z"/>
		<path id="XMLID_68_" d="M132.8,239.9c-3.5-0.4-7.1-0.9-10.6-1c-6.1-0.1-12-1.4-18-1.8c-1.5-0.1-3-0.1-4.5-0.2
			c0.3-0.7,0.6-1.3,1.3-1.5c3.4-0.9,6.7-2.1,10.2-2.7c7.7-1.3,15.3-1,23-0.3c0.7,0.4,1.5-0.2,2.2,0c4.2,0.4,8.5,1.2,12.7,1.2
			c5.2,0.1,10.3,1.2,15.5,0.1c0.5-0.1,1.1-0.1,1.7-0.1c4.9,0.1,9.8-0.9,14.7-1.2c6-0.5,12-1.2,17.9-1.9c5.3-0.6,10.7-1.4,16-2.2
			s10.6-1.8,15.9-2.8c4.5-0.8,9-1.9,13.5-3c4.3-1.1,8.5-2.2,12.8-3.4c6-1.7,11.9-3.8,17.7-6c5-1.9,10-4.1,14.8-6.5
			c5.9-2.9,11.6-6.1,17.3-9.4c4.1-2.4,8.2-5,12-8c3.7-3,7.8-5.5,11.1-9c0.6-0.6,1.3-0.9,2.4-1.7c-1.1,5-2,9.5-3.8,13.9
			c-2.5,6-6.4,10.9-10.9,15.4c-2.5,2.5-5.5,4.7-8.6,6.7c-3.5,2.3-7.4,4.1-11,6.3c-1.6,0.9-3.4,1.5-5.1,2.1
			c-4.9,1.8-9.8,3.8-14.8,5.2c-6.6,1.8-13.1,3.7-19.8,5.2c-4.7,1-9.4,2.1-14.2,2.9c-5.7,1-11.4,2-17.2,2.6c-2,0.2-3.9,0.6-5.9,0.7
			c-1.6,0.3-3.2-0.1-4.7,0.7c-11,0.9-22,1.3-33,1.7c-2.7-0.4-5.4,0-8.1,0.1c-8-0.7-16.1-0.5-24.2-1c-4.6-0.3-9.3-0.7-13.9-1
			c-0.6,0-1.2,0-1.8,0.2C134.6,239.6,133.7,240.4,132.8,239.9z"/>
		<path id="XMLID_67_" d="M186.1,331c-22.1-0.9-42.9-6.7-62.4-17.3c-6.4-3.5-12.1-8-17.3-13.1c-0.8-0.8-1.5-1.8-2.2-2.7
			c0.4-0.6,1-0.3,1.5-0.3c9.3-0.6,18.1,1.5,26.9,4c9.8,2.8,19.4,6.5,29.4,8.8c7,1.6,14.1,3.3,21.3,3.5c7.1,0.2,14.3,0.2,21.4-0.4
			c5.9-0.6,11.8-1.2,17.7-1.8c6-0.7,12-1.2,17.9-2c3.7-0.5,7.3-0.3,11.4-0.7c-3.2,2.9-5.7,5.5-8.7,7.8c-5.9,4.3-12.2,7.4-19.1,9.6
			c-4.3,1.4-8.7,2.4-13.2,3.2c-6.6,1.1-13.2,1.8-19.8,1.4C189.3,330.6,187.7,331.6,186.1,331z"/>
		<path id="XMLID_66_" d="M144.3,180.4c5.4-0.1,10.7-0.9,16.1-0.4c1,0.4,2.1-0.2,3.1,0.3c3.7-0.5,7.3,0.5,11,0.6
			c5.5,0.1,10.9,0.8,16,2.9c2,0.8,4.1,1.6,5.6,3.4c2.2,2.8,2.6,5,0.6,7.7c-1.2,1.7-2.8,3.2-4.8,4.1c-4.7,2.1-9.7,3.1-14.7,4.2
			c-5.4,1.2-11,1.9-16.4,3.1c-1,0.2-2.1,0.1-3.1,0.2c-5.1,0.4-10.1,0.7-15.2,0.8c-9.3,0.2-18.3-1.4-26.7-5.4
			c-4.5-2.2-7.7-5.6-9.3-10.4c-0.2-0.6-0.6-1.2,0.3-1.5c1.2-0.5,2.3-1.1,3.6-1.6c5.7-2.3,11.7-4,17.8-5.2c4.3-0.9,8.6-2,13.1-2
			C142.3,180.8,143.3,180.7,144.3,180.4z"/>
		<path id="XMLID_65_" d="M113.3,319.1c3.3,2.2,6.7,3.4,9.6,5.4c3,2,6.5,3.2,9.9,4.4c6.8,2.4,13.6,4.9,20.7,5.8
			c6.6,0.9,13,2.5,19.7,2.6c3.5,0,7,0.5,10.5,0.6c8.2,0,16.5,0,24.7-0.3c2-0.1,4-0.3,6-0.3c4.2,0.1,8.4-0.9,12.8-0.3
			c-1.6,2.6-3.9,4.5-6.1,6.5c-4.3,3.8-9.3,6.7-14.6,8.8c-3.2,1.3-6.6,2.3-10.1,3.1c-6.2,1.4-12.4,2-18.7,2.1
			c-4.3,0.1-8.6-0.3-12.8-1c-6.4-1-13-1.8-18.9-4.6c-5.7-2.8-11.4-5.8-16.3-10c-0.9-0.8-1.9-1.4-2.9-2.1c-4.3-3-7.7-6.8-10.8-10.9
			C114.2,326.2,113.4,323,113.3,319.1z"/>
		<path id="XMLID_64_" d="M189.6,361.6c3,0.2,6,0.3,9,0.5c-1,3-3.3,4.6-5.1,6.7c-2.5,2.9-5.9,4.7-8.9,6.8c-2,1.4-4.5,2.1-6.8,2.9
			c-3.1,1-6.4,1.7-9.7,2.2c-5.1,0.8-9.9,0-14.9-0.4c-9.7-0.8-17.4-6-24.9-11.4c-2.9-2.1-5.8-4.5-7.9-7.6c-2.3-3.3-3.8-6.7-3.8-10.8
			c0-0.6-0.2-1.3-0.3-2.1c1.4,0.5,2.5,1.3,3.6,2c5.9,3.7,12.4,6,19,8.1c4.2,1.3,8.5,2.3,12.9,2.7c8.4,0.7,16.7,0.7,25.1,0.6
			c1.7,0,3.6,0,5.3-0.3C184.7,362,187.1,361.7,189.6,361.6z"/>
		<path id="XMLID_63_" d="M143.4,388.9c6.2,0.5,12.3-0.1,18.4-0.5c0.8-0.1,1.7-0.6,2.5,0.1c-2.6,4-5.1,8-8.4,11.5
			c-1.8,2-3.7,4-5.3,6.2c-3.2,4.7-5.5,9.8-6,15.6c0,0.2-0.1,0.4-0.2,0.7c-14.9-9.9-26.4-22.4-32.8-39.4c9.9,2,19.3,4.9,29.3,5.7
			C141.7,389.3,142.6,388.6,143.4,388.9z"/>
		<path id="XMLID_62_" class="st8" d="M207.2,254.1c-3-0.1-5.9,0.9-8.9,0.1C201.3,254,204.2,253.3,207.2,254.1z"/>
		<path id="XMLID_61_" class="st9" d="M222.4,285.1c-2.8,0.2-5.7,0.4-8.5,0C216.7,284.4,219.6,285,222.4,285.1z"/>
		<path id="XMLID_60_" class="st10" d="M175.3,242c2.7-0.9,5.4-0.4,8.1-0.1C180.7,241.9,178,242.4,175.3,242z"/>
		<path id="XMLID_59_" class="st11" d="M189.6,361.6c-2.5,0.7-4.9,0.2-7.3,0C184.7,361.6,187.1,361.6,189.6,361.6z"/>
		<path id="XMLID_58_" class="st12" d="M183.3,221.8c0.7-1.2,2-0.7,3-0.8c1.3-0.1,2.6,0,3.9,0.1
			C187.9,221.3,185.6,221.5,183.3,221.8z"/>
		<path id="XMLID_57_" class="st13" d="M216.4,240.2c1.4-1.4,3.1-0.7,4.7-0.7C219.5,239.7,218,240.4,216.4,240.2z"/>
		<path id="XMLID_56_" class="st14" d="M186.1,331c1.6,0.1,3.1-0.9,4.7-0.1C189.3,331.5,187.7,331.4,186.1,331z"/>
		<path id="XMLID_41_" class="st15" d="M202.2,220.1c1.1-1.5,2.6-0.6,3.9-0.7C204.8,219.6,203.5,219.9,202.2,220.1z"/>
		<path id="XMLID_40_" class="st16" d="M144.3,180.4c-0.9,0.6-1.9,1-3,0.7C142.2,180.4,143.2,180,144.3,180.4z"/>
		<path id="XMLID_39_" class="st17" d="M138.4,214.2c-1.2,0.1-2.3,0-3.5-0.3C136,214.2,137.3,212.9,138.4,214.2z"/>
		<path id="XMLID_38_" class="st18" d="M108.2,223.5c1-0.7,2-0.3,3,0C110.2,223.2,109.2,224.5,108.2,223.5z"/>
		<path id="XMLID_37_" class="st19" d="M163.6,180.2c-1.1,0.1-2.1,0.1-3.1-0.3C161.5,180.3,162.6,178.9,163.6,180.2z"/>
		<path id="XMLID_36_" class="st20" d="M37.7,214.7c-0.7-0.2-1.4-0.5-2-1.3c1.1,0.2,2.1,0.3,2.9,0.8
			C38.3,214.4,37.9,214.3,37.7,214.7z"/>
		<path id="XMLID_35_" class="st21" d="M164.3,388.5c-0.8,0-1.7-0.1-2.5-0.1c0.5-0.2,1.1-0.5,1.6-0.7
			C164.1,387.4,164.5,387.7,164.3,388.5z"/>
		<path id="XMLID_34_" class="st22" d="M143.4,388.9c-0.9,0.7-1.7,0.2-2.6,0C141.7,389,142.6,387.8,143.4,388.9z"/>
		<path id="XMLID_19_" class="st23" d="M136.3,232.4c-0.7,0.7-1.5,0.2-2.2,0C134.8,232.3,135.6,231.4,136.3,232.4z"/>
		<path id="XMLID_6_" class="st24" d="M132.8,239.9c0.9,0.3,1.9-1.1,2.6,0.3C134.6,240.3,133.7,240.3,132.8,239.9z"/>
		<path id="XMLID_5_" class="st25" d="M10.9,186.5c0.4,0.6,0.4,1.3,0.3,2c0,0.8-0.4,0.7-0.8,0.2C11.2,188.2,10.5,187.2,10.9,186.5z"
			/>
	</g>
</g>
<circle id="XMLID_83_" class="st26" cx="1316.7" cy="704.5" r="9.2"/>
<circle id="XMLID_84_" class="st26" cx="1556.9" cy="704.5" r="9.2"/>
<path id="XMLID_8_" class="st27" d="M215,220.8c0,0,34.6,15.3,19.7,36.4c-14.9,21.1-32.2,34.1-38.6,39.5s-7.6,6.9-5.2,8.1
	c2.4,1.2,6.4,4.2,3.2,6.9c-3.2,2.7-4.8,1.5-6.8,6.1s-1.2,15.7-4.8,17.6s-22.1,42.9-17.7,68.6l-0.7,7.3c0,0,2.3,4.2,7.5,2.7
	s8.1,3.5,5.2,4.6c-2.8,1.2-10.9,6.5-15.3,5.4c-4.4-1.2-11.3-0.1-12.5,0.2s-8.1-1.7-4.8-7.8l-0.9-3.8c0,0,3.3-68.6,5.3-75.9
	s3.6-23.4,2-33.7c-1.6-10.4-14.1-31.4-21.3-33.7c-7.2-2.3-14.1-5-15.3-8.4s-19.7-13.8-28.6-16.1s-37-8.1-37.8-10.7
	c-0.8-2.6-4.8-3.5,0-9.2c4.8-5.8-0.8-6.5-6.8-3.8s-13.3,3.9-13.7-1.5c-0.4-5.4,2.4-4.6-4.8-8.1s-4.4-3.1-8.1-5
	c-3.6-1.9-3.2-10.4,3.6-9.2s19.3,14.6,25,15.3c5.6,0.8,62.3,12.7,82.5,32.2c8.9,5.4,6.8-7.7,0-10s-13.6-3.5-10-9.2
	c3.6-5.8,3.5-8.1,10-6.5s16.2,10.7,15.8,13c-0.4,2.3-2.8,3.1,2.4,4.2c5.2,1.2,6.8,3.5,7.2,5.8s7.2,6.5,12.1,7.3s16.9-13,5.2-13
	c-11.7,0-11.3-2.3-7.2-7.7c4-5.4,5.2-10.7,9.7-8.8c4.4,1.9,9.3,6.1,11.7,9.2s6.4,1.9,6.4-2.3s-3.6-6.9-6.4-10s-4-8.8-0.4-11.5
	s4.4-9.4,11.7-8.2C200.5,198.2,213,198.6,215,220.8z"/>
<g id="cma_1_">
	<g id="XMLID_20_">
		<path id="XMLID_49_" d="M44.2,497c-19.6-13.3-30-41-13.2-60.1c12.4-14,33.7-16.6,49.4-6.1c-1.1,2-1.6,3-2.7,4.9
			c-4.4-1.9-7.8,0.3-9.8,3.8c-7.9,13-15.8,26.1-23.7,39.1c-2.1,3.5-2.4,8.4,2.8,13.4C45.8,494,45.2,495,44.2,497z M83.9,433.2
			c2.9,2,7.8,9.2,10,10.3c1.3,0.7,2,0.4,3-0.6s1.8-1.4,3-0.9c2.7,1.2,1.8,4.1,1.6,4.6c-2.9,8.7-4.3,13.1-7.2,21.8
			c-0.2,0.5-1.1,3.4-4.4,1.9c-2.2-1-2.8-3.2-2.5-5.1c1.3-9.3,0.2-19.6-6.1-27C82.3,436.2,82.8,435.2,83.9,433.2z M82.3,493
			c2.2,1,3.1,3.3,2.5,4.7c-5.1,10.8-25,9.1-35.1,3c1-2,1.5-3,2.5-5c10,4.6,20,4,25.1-1.6C78.7,492.9,79.9,491.9,82.3,493z"/>
		<path id="XMLID_43_" d="M112.7,448.7c8.9,2.8,13.5,3.8,22.7,4.7c2.7,10.7,5.7,20.9,9.3,31.3c0.1,0,0.1,0,0.2,0
			c2.1-6.6,3-10,4.7-16.6c0.1,0,0.1,0,0.2,0c0.1,7.3,0.2,10.9,0.3,18.2c-4.8,14.4-10.3,28.2-16.7,42.1c-1.6-0.1-2.4-0.2-4-0.4
			c-7.4-21.6-12.4-43-15.4-65.6c-0.2-1.6-0.3-3.2-0.8-4.7c-0.5-1.7-0.6-3-2.1-3.6c-1.1-0.4-3.5-1.5-2.8-3.8
			C109.1,447.4,111.7,448.3,112.7,448.7z M111.1,474.4c0.1,0,0.1,0,0.2,0.1c0.9,7.1,1.5,10.6,2.9,17.7c-1.2,6.8-1.8,10.1-3,16.9
			c-0.2,12.7,9,10.5,8.4,14.8c-0.4,3.1-5.9,1.9-7.4,1.6c-6.2-1.3-9.2-2.1-15.3-3.9c-1.5-0.4-7-2.1-6.2-5c1.1-4.1,8.6,2.4,13.2-9.2
			C106.4,496.2,108.8,485.3,111.1,474.4z M153.6,453.8c9.6-0.6,14.3-1.3,23.7-3.9c0.4-0.1,3.3-0.8,4,2c0.3,1.4-0.3,2.5-1.4,3.2
			c-3,2-2.8,2.5-2.1,6.1c3.4,17.1,6.9,34.1,10.3,51.2c0.7,3.6,0.7,4.3,5.5,4.1c1.8-0.1,3.2,0.4,3.5,1.8c0.7,2.8-3.7,4.3-4.2,4.4
			c-12.5,3.5-25.5,5.5-38.5,6.1c-0.5,0-5.1-0.1-5.1-3c0-1.4,1.2-2.3,2.9-2.8c4.6-1.2,4.5-1.9,4.3-5.6
			C155.5,496.3,154.6,475,153.6,453.8z"/>
		<path id="XMLID_32_" d="M215.3,460.7c1.5,12.1,2.4,24.3,2.5,36.4c0.2,6.6,2.4,7.4,7.2,6.6c2.2-0.4,4.2-0.8,5,1
			c1.1,2.5-3,4.6-5.6,5.9c-5.9,2.9-8.9,4.2-14.9,6.6c-2.6,1-7.4,2.6-8.1-0.2c-0.6-2.3,1.7-2.9,4.2-5c2.4-2,5.2-5.6,5.2-13.3
			c0.2-15.5-0.5-31.2-2.6-46.6c0.1-0.1,0.2-0.1,0.3-0.2C211.1,455.5,212.5,457.3,215.3,460.7z M239.4,479.9
			c-6.5,4.5-9.8,6.6-16.5,10.2c-0.2-2.5-0.4-3.7-0.6-6.1c5.5-3,8.1-4.7,13.4-8.3c-10.2-10.4-19.6-21.1-28.6-32.5
			c-0.4-2.2-0.6-3.3-1.1-5.5c7.3-4.3,10.9-6.8,17.6-12.6c15.4,13.6,31.4,25.2,49.1,35.6c2.3,1.4,3.6,2.7,7.2,0.3
			c1.8-1.2,3.4-2,4.5-0.8c1.7,1.9-2.2,6.1-4.2,8.3c-8.7,9.3-18.2,17.8-28.5,25.3c-2.4,1.8-6,4-7.2,1.8c-0.7-1.4-0.2-2.3,1-4
			c2.4-3.4,2.5-4.4-0.4-6.9C242.8,482.9,241.7,481.9,239.4,479.9z"/>
	</g>
</g>
</svg>
