<?xml version="1.0" encoding="utf-8"?>
<!-- Generator: Adobe Illustrator 19.0.0, SVG Export Plug-In . SVG Version: 6.00 Build 0)  -->
<svg version="1.1" xmlns="http://www.w3.org/2000/svg" xmlns:xlink="http://www.w3.org/1999/xlink" x="0px" y="0px"
	 viewBox="1255.9 -72 629 586" style="enable-background:new 1255.9 -72 629 586;" xml:space="preserve">
<style type="text/css">
	.st0{display:none;}
	.st1{display:inline;stroke:#000000;stroke-miterlimit:10;}
	.st2{fill:#FFFFFF;stroke:#FF0000;stroke-width:10;stroke-miterlimit:10;}
	.st3{stroke:#FFFFFF;stroke-width:4;stroke-miterlimit:10;}
	.st4{fill:#FFFFFF;stroke:#FF0000;stroke-miterlimit:10;}
	.st5{fill:#FFFFFF;}
	.st6{opacity:0.3;}
	.st7{fill:#FEFEFE;}
	.st8{fill:#9A9A9A;}
	.st9{fill:#2F2F2F;}
	.st10{fill:#C7C7C7;}
	.st11{fill:#F1F1F1;}
	.st12{fill:#0E0E0E;}
	.st13{fill:#343434;}
	.st14{fill:#404040;}
	.st15{fill:#101010;}
	.st16{fill:#878787;}
	.st17{fill:#F0F0F0;}
	.st18{fill:#C4C4C4;}
	.st19{fill:#E9E9E9;}
	.st20{fill:#C3C3C3;}
	.st21{fill:#909090;}
	.st22{fill:#C2C2C2;}
	.st23{fill:#CACACA;}
	.st24{fill:#1D1D1D;}
	.st25{fill:#A3A3A3;}
	.st26{fill:#FF0000;}
	.st27{fill:#777777;}
</style>
<g id="Layer_2_1_" class="st0">
	<rect x="1347.4" y="-41" class="st1" width="405" height="580.1"/>
	<rect x="1269.2" y="685" class="st1" width="559.6" height="99"/>
	<rect x="1180" y="674" class="st1" width="750" height="110"/>
</g>
<g id="Layer_1">
	<g id="Layer_1_1_" class="st0">
		
			<image style="display:inline;overflow:visible;enable-background:new    ;" width="800" height="800" id="XMLID_2_" xlink:href="71194661.jpeg"  transform="matrix(1 0 0 1 -302 -149)">
		</image>
	</g>
	<g id="Layer_3" class="st0">
		
			<image style="display:inline;overflow:visible;enable-background:new    ;" width="1920" height="1080" id="bg" xlink:href="71194663.jpeg"  transform="matrix(1 0 0 1 611.0001 -190)">
		</image>
	</g>
	<g id="Layer_2">
		<circle id="outer_circle_1_" class="st2" cx="1574.4" cy="220.9" r="285.9"/>
		<g id="cma_1_">
			<g id="XMLID_20_">
				<path id="XMLID_49_" d="M1469.1,437.7c-19.6-13.3-30-41-13.2-60.1c12.4-14,33.7-16.6,49.4-6.1c-1.1,2-1.6,3-2.7,4.9
					c-4.4-1.9-7.8,0.3-9.8,3.8c-7.9,13-15.8,26.1-23.7,39.1c-2.1,3.5-2.4,8.4,2.8,13.4C1470.7,434.7,1470.1,435.7,1469.1,437.7z
					 M1508.8,373.9c2.9,2,7.8,9.2,10,10.3c1.3,0.7,2,0.4,3-0.6s1.8-1.4,3-0.9c2.7,1.2,1.8,4.1,1.6,4.6c-2.9,8.7-4.3,13.1-7.2,21.8
					c-0.2,0.5-1.1,3.4-4.4,1.9c-2.2-1-2.8-3.2-2.5-5.1c1.3-9.3,0.2-19.6-6.1-27C1507.2,376.9,1507.7,375.9,1508.8,373.9z
					 M1507.2,433.7c2.2,1,3.1,3.3,2.5,4.7c-5.1,10.8-25,9.1-35.1,3c1-2,1.5-3,2.5-5c10,4.6,20,4,25.1-1.6
					C1503.6,433.6,1504.8,432.6,1507.2,433.7z"/>
				<path id="XMLID_43_" d="M1537.6,389.4c8.9,2.8,13.5,3.8,22.7,4.7c2.7,10.7,5.7,20.9,9.3,31.3c0.1,0,0.1,0,0.2,0
					c2.1-6.6,3-10,4.7-16.6c0.1,0,0.1,0,0.2,0c0.1,7.3,0.2,10.9,0.3,18.2c-4.8,14.4-10.3,28.2-16.7,42.1c-1.6-0.1-2.4-0.2-4-0.4
					c-7.4-21.6-12.4-43-15.4-65.6c-0.2-1.6-0.3-3.2-0.8-4.7c-0.5-1.7-0.6-3-2.1-3.6c-1.1-0.4-3.5-1.5-2.8-3.8
					C1534,388.1,1536.6,389,1537.6,389.4z M1536,415.1c0.1,0,0.1,0,0.2,0.1c0.9,7.1,1.5,10.6,2.9,17.7c-1.2,6.8-1.8,10.1-3,16.9
					c-0.2,12.7,9,10.5,8.4,14.8c-0.4,3.1-5.9,1.9-7.4,1.6c-6.2-1.3-9.2-2.1-15.3-3.9c-1.5-0.4-7-2.1-6.2-5c1.1-4.1,8.6,2.4,13.2-9.2
					C1531.3,436.9,1533.7,426,1536,415.1z M1578.5,394.5c9.6-0.6,14.3-1.3,23.7-3.9c0.4-0.1,3.3-0.8,4,2c0.3,1.4-0.3,2.5-1.4,3.2
					c-3,2-2.8,2.5-2.1,6.1c3.4,17.1,6.9,34.1,10.3,51.2c0.7,3.6,0.7,4.3,5.5,4.1c1.8-0.1,3.2,0.4,3.5,1.8c0.7,2.8-3.7,4.3-4.2,4.4
					c-12.5,3.5-25.5,5.5-38.5,6.1c-0.5,0-5.1-0.1-5.1-3c0-1.4,1.2-2.3,2.9-2.8c4.6-1.2,4.5-1.9,4.3-5.6
					C1580.4,437,1579.5,415.7,1578.5,394.5z"/>
				<path id="XMLID_32_" d="M1640.2,401.4c1.5,12.1,2.4,24.3,2.5,36.4c0.2,6.6,2.4,7.4,7.2,6.6c2.2-0.4,4.2-0.8,5,1
					c1.1,2.5-3,4.6-5.6,5.9c-5.9,2.9-8.9,4.2-14.9,6.6c-2.6,1-7.4,2.6-8.1-0.2c-0.6-2.3,1.7-2.9,4.2-5c2.4-2,5.2-5.6,5.2-13.3
					c0.2-15.5-0.5-31.2-2.6-46.6c0.1-0.1,0.2-0.1,0.3-0.2C1636,396.2,1637.4,398,1640.2,401.4z M1664.3,420.6
					c-6.5,4.5-9.8,6.6-16.5,10.2c-0.2-2.5-0.4-3.7-0.6-6.1c5.5-3,8.1-4.7,13.4-8.3c-10.2-10.4-19.6-21.1-28.6-32.5
					c-0.4-2.2-0.6-3.3-1.1-5.5c7.3-4.3,10.9-6.8,17.6-12.6c15.4,13.6,31.4,25.2,49.1,35.6c2.3,1.4,3.6,2.7,7.2,0.3
					c1.8-1.2,3.4-2,4.5-0.8c1.7,1.9-2.2,6.1-4.2,8.3c-8.7,9.3-18.2,17.8-28.5,25.3c-2.4,1.8-6,4-7.2,1.8c-0.7-1.4-0.2-2.3,1-4
					c2.4-3.4,2.5-4.4-0.4-6.9C1667.7,423.6,1666.6,422.6,1664.3,420.6z"/>
			</g>
		</g>
		<g id="XMLID_7_">
			<path id="XMLID_21_" class="st3" d="M1327.8,605.6c-28.9-0.4-42.5-16.4-42.5-36.1c0-22.2,17.1-38,42.5-38.6v5.6
				c-6.3,1-8.4,4.9-8.4,8.9V591c0,4,2.1,8,8.4,9.1V605.6z M1333.7,530.8c4.9,0.1,15,3.8,18.4,3.8c2,0,2.8-0.6,3.5-1.8
				c0.8-1.3,1.7-2,3.5-2c4.2,0,4.2,3,4.2,3.5v22.3c0,0.5,0,3.5-4.2,3.5c-2.8,0-4.3-1.6-4.9-3.5c-2.2-7.8-8.4-17.8-20.6-20.2
				L1333.7,530.8L1333.7,530.8z M1359.6,583.3c2.5,0,3.9,1.5,3.9,3.3c-0.3,7.9-16.1,19.4-29.8,19V600c10.1-1.6,18.6-6.5,21.5-13.6
				C1356,584.7,1356.8,583.3,1359.6,583.3z"/>
			<path id="XMLID_25_" class="st3" d="M1393.1,578.9l-17.9-31.2c-0.8-1.6-1.4-2.7-3.4-3.7c-1.5-0.6-2.7-1-2.7-2.5
				c0-2.7,3.8-2.5,6.3-2.5h29.4c2.6,0,6.5-0.2,6.5,2.6c0,1.3-1.3,2-2.6,2.6c-1.3,0.5-2.3,0.9-2.3,2.1c0,1.1,0.6,2.3,1.2,3.3
				l14.7,24.6v20.1c0,3.2-0.1,3.7,4,4.7c1.5,0.3,2.6,1.1,2.6,2.3c0,2.5-3.9,2.7-4.4,2.7h-33.6c-0.5,0-4.4-0.2-4.4-2.7
				c0-1.2,1.1-2,2.6-2.3c4.2-1,4-1.5,4-4.7L1393.1,578.9L1393.1,578.9z M1420.9,563.3l6.2-10.1c1-1.5,1.8-2.9,1.8-4.6
				c0-5.2-8.1-3.3-8.1-6.9c0-3.1,4.9-2.7,7.7-2.7h13.2c2.7,0,6.1,0.2,6.1,2.8c0,1.5-1.3,2.1-3,2.6c-4.9,1.5-6.2,2.8-8.4,6.4
				l-11.6,18.7L1420.9,563.3z"/>
			<path id="XMLID_28_" class="st3" d="M1489.4,605.4c-26.2-0.3-38.5-14.9-38.5-32.7c0-20.1,15.5-34.4,38.5-35v5
				c-5.7,0.9-7.6,4.4-7.6,8.1v41.3c0,3.7,1.9,7.2,7.6,8.3V605.4z M1494.7,537.7c4.4,0.1,13.6,3.5,16.6,3.5c1.8,0,2.5-0.5,3.2-1.7
				c0.7-1.1,1.5-1.8,3.2-1.8c3.8,0,3.8,2.7,3.8,3.1V561c0,0.4,0,3.1-3.8,3.1c-2.5,0-3.9-1.5-4.4-3.1c-2-7-7.6-16.1-18.7-18.3
				L1494.7,537.7L1494.7,537.7z M1518.2,585.2c2.3,0,3.6,1.4,3.6,3c-0.2,7.1-14.6,17.6-27,17.2v-5c9.2-1.5,16.9-5.9,19.5-12.4
				C1515,586.5,1515.7,585.2,1518.2,585.2z"/>
			<path id="XMLID_53_" class="st3" d="M1566.8,604.1h-31.4c-0.5,0-4.4-0.2-4.4-2.7c0-1.2,1.1-2,2.6-2.3c4.2-1,4-1.5,4-4.7v-45.6
				c0-3.2,0.1-3.7-4-4.7c-1.5-0.3-2.6-1.1-2.6-2.4c0-2.5,3.9-2.7,4.4-2.7h33.6c0.5,0,4.4,0.2,4.4,2.7c0,1.2-1.1,2-2.6,2.4
				c-4.2,1-4,1.5-4,4.7V604.1L1566.8,604.1z M1572.1,599.1c9.6-1,15.1-7,17.6-15.1c0.6-1.9,2-2.4,4.5-2.4c2.7,0,3,1.7,3,3.3v19.3
				h-25.1V599.1z"/>
			<path id="XMLID_69_" class="st3" d="M1636.8,542.8c-5.6,1.5-6.1,4.1-6.1,6.3v45.1c0,2.2,0.5,4.8,6.1,6.3v5
				c-25.2-1.7-37-16.5-37-33.9s11.8-32.2,37-33.9V542.8z M1642.1,600.4c5.6-1.5,6.1-4.1,6.1-6.3V549c0-2.2-0.5-4.8-6.1-6.3v-5
				c25.2,1.7,37,16.5,37,33.9s-11.8,32.2-37,33.9V600.4z"/>
			<path id="XMLID_75_" class="st3" d="M1695.4,555.4h0.2l6.7,8.7v26.3c1.9,10.9,9.5,7.5,9.5,11.2c0,2.7-4.9,2.5-6.2,2.5h-13.5
				c-1.3,0-6.2,0.2-6.2-2.5c0-3.7,7.6-0.3,9.5-11.2V555.4z M1757.3,583.1v21.1h-17.7l-43.5-54.9c-1.9-2.4-2.5-3.7-6.4-4.7
				c-2-0.5-3.6-0.9-3.6-2.8c0-2.6,3.6-2.6,6.1-2.7h30.5L1757.3,583.1z M1750.4,554.8c0-12.4-9.7-9.1-9.7-13.1c0-2.4,3.9-2.6,5.1-2.6
				h16.2c1.2,0,5.1,0.2,5.1,2.6c0,4-9.7,0.7-9.7,13.1v21.1h-0.2l-6.7-8.8v-12.3H1750.4z"/>
			<path id="XMLID_80_" class="st3" d="M1780.9,532.2h34.6v71.9h-34.6c-0.5,0-4.9-0.2-4.9-3c0-1.3,1.2-2.2,2.9-2.6
				c4.6-1.1,4.5-1.6,4.5-5.2V543c0-3.6,0.1-4.1-4.5-5.2c-1.7-0.4-2.9-1.3-2.9-2.6C1776.1,532.4,1780.4,532.2,1780.9,532.2z
				 M1821.5,532.2h29.3v19.5c0,0.5-0.1,2.3-4.1,2.3c-2.2,0-2.9-1-3.5-2.4c-3.4-7.8-10.1-12.5-21.7-13.8L1821.5,532.2L1821.5,532.2z
				 M1821.5,564.3c5.5-1.1,8-4.8,9.2-8.5c0.7-1.6,1.4-3.2,4.2-3.2c4.1,0,3.4,3.5,3.4,4.2v20.8c0,0.8,0.7,4.2-3.4,4.2
				c-2.8,0-3.5-1.5-4.2-3.2c-1.2-3.7-3.7-7.4-9.2-8.5V564.3z M1821.5,598.5c10.6-1,18.8-6.2,22.3-13.9c0.9-1.4,1.7-3,4.1-3
				c4.2,0,3.8,2.9,3.8,3.3v19.2h-30.2L1821.5,598.5L1821.5,598.5z"/>
		</g>
		<g id="XMLID_82_">
			<path id="XMLID_132_" class="st4" d="M1290.5,665.8v-6h6.5v-23.4h-6.5v-6h25.1l11,20.7l11-20.7h25.5v6h-6.5v23.4h6.5v6H1338v-6h6
				v-23.4h-1.2l-15.5,29.4h-5.4l-15.7-29.4h-1.2v23.4h6.5v6H1290.5z"/>
			<path id="XMLID_134_" class="st4" d="M1416.6,659.8v6H1392v-6h6.4l-2.4-6.1h-13l-2.7,6.1h6.7v6h-22.1v-6h6.2l9.7-23.4h-6.6v-6
				h32.6v6h-6.7l10.5,23.4H1416.6z M1394,648.5l-4.2-10.7l-4.5,10.7H1394z"/>
			<path id="XMLID_137_" class="st4" d="M1470.2,659.8v6H1455l-11.3-15.5h-5.7v9.5h6.2v6h-26.1v-6h6.9v-23.4h-6.9v-6h30.1
				c5.7,0,9.8,1,12.3,3s3.8,4.3,3.8,6.9c0,4-2.9,7-8.7,8.8l8.1,10.7H1470.2z M1438,644.6h4.5c5.5,0,8.3-1.4,8.3-4.2
				c0-1.4-0.6-2.4-1.9-3.1c-1.3-0.7-3-1-5.2-1h-5.7V644.6z"/>
			<path id="XMLID_140_" class="st4" d="M1479.1,665.8v-6h7.5v-23.4h-7.5v8.2h-8.6v-14.2h45.3v14.2h-8.5v-8.2h-7.7v23.4h7.5v6
				H1479.1z"/>
			<path id="XMLID_142_" class="st4" d="M1519.7,665.8v-6h7.6v-23.4h-7.6v-6h28.2v6h-7.6v23.4h7.6v6H1519.7z"/>
			<path id="XMLID_144_" class="st4" d="M1600.9,659.8v6h-24.6v-6h6.4l-2.4-6.1h-13l-2.7,6.1h6.7v6h-22.1v-6h6.2l9.7-23.4h-6.6v-6
				h32.6v6h-6.7l10.5,23.4H1600.9z M1578.3,648.5l-4.2-10.7l-4.5,10.7H1578.3z"/>
			<path id="XMLID_147_" class="st4" d="M1602.8,665.8v-6h7.1v-23.4h-7.1v-6h27.4v6h-7.3v23.4h14.8v-10.9h9.7v16.9H1602.8z"/>
			<path id="XMLID_149_" class="st4" d="M1718.1,659.8v6h-24.6v-6h6.4l-2.4-6.1h-13l-2.7,6.1h6.7v6h-22.1v-6h6.2l9.7-23.4h-6.6v-6
				h32.6v6h-6.7l10.5,23.4H1718.1z M1695.5,648.5l-4.2-10.7l-4.5,10.7H1695.5z"/>
			<path id="XMLID_152_" class="st4" d="M1771.8,659.8v6h-15.2l-11.3-15.5h-5.7v9.5h6.2v6h-26.1v-6h6.9v-23.4h-6.9v-6h30.1
				c5.7,0,9.8,1,12.3,3s3.8,4.3,3.8,6.9c0,4-2.9,7-8.7,8.8l8.1,10.7H1771.8z M1739.6,644.6h4.5c5.5,0,8.3-1.4,8.3-4.2
				c0-1.4-0.6-2.4-1.9-3.1c-1.3-0.7-3-1-5.2-1h-5.6v8.3H1739.6z"/>
			<path id="XMLID_155_" class="st4" d="M1780.7,665.8v-6h7.5v-23.4h-7.5v8.2h-8.6v-14.2h45.3v14.2h-8.5v-8.2h-7.7v23.4h7.5v6
				H1780.7z"/>
			<path id="XMLID_157_" class="st4" d="M1823.1,665.8v-12.1h8.5c0.1,2.2,0.9,3.8,2.4,4.9c1.5,1,3.3,1.6,5.2,1.6
				c1.5,0,2.8-0.4,3.9-1.1c1.1-0.8,1.6-1.6,1.6-2.7c0-1.1-0.5-2-1.5-2.7s-2.9-1.6-5.6-2.5c-5.8-2-9.7-3.7-11.8-5.2
				c-2.1-1.5-3.1-3.6-3.1-6.1c0-3.1,1.4-5.5,4.1-7.2s5.8-2.6,9.3-2.6c4,0,7.1,1.1,9.2,3.3v-2.9h8.4v10.8h-8.4
				c-0.3-1.7-1.1-2.9-2.4-3.9c-1.4-0.9-2.9-1.4-4.7-1.4c-1.4,0-2.6,0.3-3.5,0.8c-1,0.5-1.4,1.2-1.4,2.1c0,0.7,0.4,1.4,1.2,2.1
				c0.8,0.7,3.1,1.6,6.9,2.8c3.7,1.2,6.5,2.2,8.5,3.2c2,0.9,3.5,2.2,4.7,3.7c1.1,1.5,1.7,3.2,1.7,5.2c0,3.5-1.4,6.1-4.3,7.9
				c-2.9,1.8-6.3,2.7-10.2,2.7c-4.4,0-7.8-1.1-10.1-3.5v3h-8.6V665.8z"/>
		</g>
		<g id="XMLID_76_">
			<path id="XMLID_87_" class="st5" d="M1255.9,728.1v-5.5h4.9V701h-4.9v-5.5h15.3c3.2,0,5.8,0.2,7.8,0.6c2,0.4,3.8,1.3,5.6,2.6
				c1.8,1.4,3.2,3.2,4.3,5.5c1.1,2.3,1.6,4.8,1.6,7.6c0,2.3-0.4,4.4-1.1,6.5c-0.8,2.1-1.7,3.7-2.8,5s-2.5,2.3-4,3
				c-1.6,0.7-3,1.2-4.3,1.4c-1.3,0.2-3.3,0.3-6.1,0.3h-16.3V728.1z M1269.2,722.6h2c2.4,0,4.4-0.3,5.8-1c1.4-0.6,2.6-1.8,3.4-3.4
				c0.9-1.6,1.3-3.7,1.3-6.3c0-2.5-0.4-4.6-1.3-6.3s-2.1-2.9-3.5-3.6c-1.5-0.7-3.4-1-5.7-1h-2V722.6z"/>
			<path id="XMLID_90_" class="st5" d="M1312.6,721.3l5.6,1.8c-2.3,3.7-6,5.5-10.9,5.5c-4,0-7-1.1-9.3-3.2c-2.2-2.1-3.3-4.9-3.3-8.3
				c0-3.5,1.1-6.4,3.4-8.8c2.3-2.3,5.2-3.5,8.7-3.5c2.6,0,4.8,0.7,6.7,2s3.2,2.9,3.9,4.9c0.7,1.9,1.1,4.1,1.1,6.5h-16.7
				c0.1,2.1,0.8,3.5,1.9,4.4c1.2,0.9,2.4,1.3,3.7,1.3C1309.2,723.9,1310.9,723.1,1312.6,721.3z M1311.3,714.3
				c-0.2-1.3-0.7-2.3-1.5-3.2c-0.8-0.9-1.9-1.3-3.3-1.3c-2.6,0-4.2,1.5-4.6,4.6L1311.3,714.3L1311.3,714.3z"/>
			<path id="XMLID_93_" class="st5" d="M1330.8,728.4l-7.6-17.8h-3.2v-5.2h13.6v5.2h-2.8l3.5,10.3l4.1-10.3h-2.9v-5.2h11.9v5.2h-3.2
				l-7.3,17.8H1330.8z"/>
			<path id="XMLID_95_" class="st5" d="M1365.9,721.3l5.6,1.8c-2.3,3.7-6,5.5-10.9,5.5c-4,0-7-1.1-9.3-3.2c-2.2-2.1-3.3-4.9-3.3-8.3
				c0-3.5,1.1-6.4,3.4-8.8c2.3-2.3,5.2-3.5,8.7-3.5c2.6,0,4.8,0.7,6.7,2s3.2,2.9,3.9,4.9c0.7,1.9,1.1,4.1,1.1,6.5H1355
				c0.1,2.1,0.8,3.5,1.9,4.4c1.2,0.9,2.4,1.3,3.7,1.3C1362.4,723.9,1364.1,723.1,1365.9,721.3z M1364.5,714.3
				c-0.2-1.3-0.7-2.3-1.5-3.2s-1.9-1.3-3.3-1.3c-2.6,0-4.2,1.5-4.6,4.6L1364.5,714.3L1364.5,714.3z"/>
			<path id="XMLID_98_" class="st5" d="M1375,728.1v-5.2h3.5v-22.1h-3.5v-5.2h10.7v27.3h3.2v5.2H1375z"/>
			<path id="XMLID_100_" class="st5" d="M1403.7,728.6c-3.3,0-6.1-1.1-8.4-3.2c-2.3-2.1-3.4-5-3.4-8.7s1.1-6.6,3.4-8.7
				c2.3-2.1,5.1-3.2,8.4-3.2s6.1,1.1,8.4,3.2s3.4,5,3.4,8.7c0,3.6-1.1,6.5-3.4,8.7C1409.9,727.6,1407.1,728.6,1403.7,728.6z
				 M1403.7,723c1.3,0,2.4-0.5,3.2-1.5s1.2-2.6,1.2-4.8c0-1.9-0.4-3.4-1.2-4.5s-1.9-1.6-3.3-1.6c-3,0-4.4,2.2-4.4,6.5
				c0,1.8,0.4,3.2,1.1,4.4C1401.1,722.4,1402.2,723,1403.7,723z"/>
			<path id="XMLID_103_" class="st5" d="M1433.5,733.1v5.2h-15.4v-5.2h3.8v-22.4h-3.2v-5.2h10.3v2.8c2-2.1,4.2-3.2,6.7-3.2
				c3,0,5.3,1.2,7,3.6c1.7,2.4,2.6,5.2,2.6,8.3c0,3.4-0.9,6.1-2.6,8.3c-1.8,2.2-4.1,3.3-7,3.3c-2.4,0-4.6-0.9-6.6-2.8v7.3
				L1433.5,733.1L1433.5,733.1z M1437.9,716.9c0-2-0.4-3.5-1.2-4.4c-0.8-1-1.9-1.5-3.2-1.5s-2.4,0.5-3.3,1.5c-0.8,1-1.3,2.5-1.3,4.5
				c0,1.8,0.4,3.2,1.3,4.3c0.8,1.1,1.9,1.6,3.3,1.6c1.3,0,2.3-0.5,3.2-1.5C1437.5,720.5,1437.9,718.9,1437.9,716.9z"/>
			<path id="XMLID_106_" class="st5" d="M1519.2,728.1v-5.5h4.9V701h-4.9v-5.5h18.2v5.5h-4.9v21.6h4.9v5.5H1519.2z"/>
			<path id="XMLID_108_" class="st5" d="M1540.1,710.7v-5.2h10.6v2.1c2.2-1.6,4.4-2.5,6.6-2.5c4.5,0,6.8,2.9,6.8,8.8v9h3.4v5.2H1557
				v-13.7c0-1.2-0.2-2.1-0.5-2.5c-0.3-0.5-0.9-0.7-1.6-0.7c-1.3,0-2.7,0.5-4.1,1.5v10.2h3.5v5.2h-14v-5.2h3.4v-12.2L1540.1,710.7
				L1540.1,710.7z"/>
			<path id="XMLID_110_" class="st5" d="M1570.8,728.1v-7.8h5.2c0,1.1,0.5,1.9,1.5,2.5c0.9,0.6,2.1,0.9,3.4,0.9
				c1.2,0,2.1-0.2,2.7-0.6c0.7-0.4,1-0.9,1-1.6c0-0.6-0.3-1.1-0.9-1.4c-0.6-0.3-1.8-0.6-3.5-0.9c-3.6-0.6-6.2-1.5-7.9-2.7
				c-1.7-1.2-2.4-2.8-2.4-4.8c0-1.9,0.8-3.4,2.3-4.7s3.5-1.9,6-1.9c2,0,3.9,0.4,5.7,1.1v-0.8h5.1v6.6h-5.1c-0.5-1.6-2.1-2.4-4.9-2.4
				c-2.1,0-3.1,0.6-3.1,1.7c0,0.4,0.2,0.8,0.6,1c0.4,0.2,1.5,0.5,3.3,0.8c2.8,0.5,4.8,1,6.2,1.5c1.4,0.5,2.5,1.3,3.3,2.4
				c0.8,1.1,1.2,2.5,1.2,4c0,2.2-0.8,4-2.4,5.4c-1.6,1.4-3.8,2.1-6.7,2.1c-2.7,0-4.5-0.6-5.5-1.6v1.1h-5.1V728.1z"/>
			<path id="XMLID_112_" class="st5" d="M1608.5,733.1v5.2H1593v-5.2h3.8v-22.4h-3.2v-5.2h10.4v2.8c2-2.1,4.2-3.2,6.7-3.2
				c3,0,5.3,1.2,7,3.6c1.7,2.4,2.6,5.2,2.6,8.3c0,3.4-0.9,6.1-2.6,8.3c-1.8,2.2-4.1,3.3-7,3.3c-2.4,0-4.6-0.9-6.6-2.8v7.3
				L1608.5,733.1L1608.5,733.1z M1612.9,716.9c0-2-0.4-3.5-1.2-4.4c-0.8-1-1.9-1.5-3.2-1.5s-2.4,0.5-3.3,1.5c-0.8,1-1.3,2.5-1.3,4.5
				c0,1.8,0.4,3.2,1.3,4.3c0.8,1.1,1.9,1.6,3.3,1.6c1.3,0,2.3-0.5,3.2-1.5C1612.4,720.5,1612.9,718.9,1612.9,716.9z"/>
			<path id="XMLID_115_" class="st5" d="M1623.9,710.7v-5.2h10.6v17.4h3.3v5.2h-13.9v-5.2h3.4v-12.2H1623.9z M1627.1,699
				c0-1.1,0.4-2,1.1-2.8c0.8-0.8,1.7-1.2,2.8-1.2c1.1,0,2,0.4,2.8,1.2c0.8,0.8,1.1,1.7,1.1,2.8s-0.4,2-1.1,2.8
				c-0.8,0.8-1.7,1.2-2.8,1.2c-1.1,0-2-0.4-2.8-1.2C1627.4,701,1627.1,700,1627.1,699z"/>
			<path id="XMLID_118_" class="st5" d="M1655.8,722.9v5.2H1640v-5.2h4.1v-12.2h-3.9v-5.2h10.4v5.8c0.4-1.7,1.3-3.1,2.7-4.3
				c1.4-1.2,3.1-1.8,5.1-1.8c0.3,0,0.7,0,1.2,0v6.8c-1.8,0-3.3,0.2-4.4,0.6c-1.1,0.4-2.1,1.3-2.8,2.7s-1.1,3-1.1,4.9v2.8
				L1655.8,722.9L1655.8,722.9z"/>
			<path id="XMLID_120_" class="st5" d="M1679.8,721.3l5.6,1.8c-2.3,3.7-6,5.5-10.9,5.5c-4,0-7-1.1-9.3-3.2
				c-2.2-2.1-3.3-4.9-3.3-8.3c0-3.5,1.1-6.4,3.4-8.8c2.3-2.3,5.2-3.5,8.7-3.5c2.6,0,4.8,0.7,6.7,2c1.9,1.3,3.2,2.9,3.9,4.9
				s1.1,4.1,1.1,6.5H1669c0.1,2.1,0.8,3.5,1.9,4.4c1.2,0.9,2.4,1.3,3.7,1.3C1676.3,723.9,1678,723.1,1679.8,721.3z M1678.4,714.3
				c-0.2-1.3-0.7-2.3-1.5-3.2s-1.9-1.3-3.3-1.3c-2.6,0-4.2,1.5-4.6,4.6L1678.4,714.3L1678.4,714.3z"/>
			<path id="XMLID_123_" class="st5" d="M1781.1,717.2v-5.5h15.1c0,3.9-0.7,7.1-2.1,9.4c-1.4,2.3-3.5,4.1-6.2,5.5
				c-2.7,1.3-5.7,2-9.1,2c-5.8,0-10.3-1.6-13.4-4.7c-3.1-3.2-4.7-7.2-4.7-12c0-3.4,0.8-6.3,2.3-8.9c1.5-2.6,3.6-4.5,6.2-5.8
				s5.4-2,8.5-2c4.3,0,7.7,1.1,10.1,3.2v-2.7h5.5v11.6h-5.5c-0.6-1.9-1.7-3.5-3.4-4.6c-1.7-1.1-3.5-1.7-5.5-1.7
				c-2.6,0-4.8,0.9-6.6,2.7c-1.8,1.8-2.7,4.4-2.7,7.6c0,3.7,0.9,6.5,2.8,8.5c1.8,1.9,4.1,2.9,6.7,2.9c1.9,0,3.6-0.5,4.8-1.4
				c1.3-1,2.2-2.3,2.7-4L1781.1,717.2L1781.1,717.2z"/>
			<path id="XMLID_125_" class="st5" d="M1815.5,722.9v5.2h-15.8v-5.2h4.1v-12.2h-3.9v-5.2h10.4v5.8c0.4-1.7,1.3-3.1,2.7-4.3
				c1.4-1.2,3.1-1.8,5.1-1.8c0.3,0,0.7,0,1.2,0v6.8c-1.8,0-3.3,0.2-4.4,0.6c-1.1,0.4-2.1,1.3-2.8,2.7s-1.1,3-1.1,4.9v2.8
				L1815.5,722.9L1815.5,722.9z"/>
			<path id="XMLID_127_" class="st5" d="M1833.3,728.6c-3.3,0-6.1-1.1-8.4-3.2c-2.3-2.1-3.4-5-3.4-8.7s1.1-6.6,3.4-8.7
				s5.1-3.2,8.4-3.2s6.1,1.1,8.4,3.2s3.4,5,3.4,8.7c0,3.6-1.1,6.5-3.4,8.7C1839.5,727.6,1836.7,728.6,1833.3,728.6z M1833.3,723
				c1.3,0,2.4-0.5,3.2-1.5c0.8-1,1.2-2.6,1.2-4.8c0-1.9-0.4-3.4-1.2-4.5c-0.8-1.1-1.9-1.6-3.3-1.6c-3,0-4.4,2.2-4.4,6.5
				c0,1.8,0.4,3.2,1.1,4.4C1830.7,722.4,1831.8,723,1833.3,723z"/>
			<path id="XMLID_130_" class="st5" d="M1855,728.4l-5.9-17.8h-2.8v-5.2h12.2v5.2h-2.4l2.8,8.4l4.6-13.6h5.9l4.4,13.6l2.8-8.4h-2.5
				v-5.2h10.8v5.2h-2.8l-5.8,17.8h-6.2l-4.4-13.3l-4.3,13.3H1855z"/>
		</g>
		<g id="XMLID_1_" class="st6">
			<g id="XMLID_4_">
				<path id="XMLID_74_" class="st7" d="M1580.4,371.1c-66.5,0-133,0-199.5,0c-1.7,0-1.9-0.5-1.9-2c0-116.1,0-232.1,0-348.2
					c0-1.7,0.5-1.9,2-1.9c132.9,0,265.9,0,398.8,0c1.9,0,2.1,0.5,2.1,2.2c0,116,0,232,0,348c0,1.7-0.5,1.9-2,1.9
					C1713.4,371,1646.9,371.1,1580.4,371.1z"/>
				<path id="XMLID_73_" d="M1632.1,194.8c4.9-0.2,9.9-0.2,14.8-0.6c5.8-0.4,11.6-1.1,17.3-1.9c5.4-0.7,10.8-1.5,16.2-2.7
					c4.3-1,8.6-1.8,12.9-3c6.2-1.8,12.5-3.6,18.6-5.7c5-1.7,9.9-3.7,14.7-5.8c5.3-2.3,10.5-4.7,15.5-7.5c2.2-1.2,4.6-2,6.6-3.8
					c-0.8,3.5-1.5,6.9-3.1,10c-1.9,3.8-4.2,7.3-7.1,10.5c-2.6,2.8-5.5,5.2-8.7,7.1c-3.6,2.2-7.4,4.1-11.5,5.6
					c-3.8,1.4-7.7,2.7-11.6,3.7c-4.9,1.3-9.8,2.2-14.7,3.1c-5.2,1-10.3,1.8-15.5,2.8c-5.3,1-10.6,1.8-15.9,2.5
					c-6.1,0.8-12.3,1.2-18.4,1.6c-3.9,0.2-7.8-0.1-11.6,0.2c-3.9,0.4-7.6-0.3-11.4-0.1c-4.8,0.2-9.6-0.7-14.3-0.7
					c-5.7,0-11.2-1.4-16.8-1.6c-7.3-0.3-14.4-2.3-21.6-3.2c-11.9-1.5-23.4-4.9-35-7.7c-8-1.9-16-4.1-23.9-6.6c-8-2.6-16-5-23.7-8.3
					c-7.9-3.4-16.1-6.6-23.3-11.3c-7.3-4.8-14-10.3-19-17.5c-0.7-1-1.5-2.1-1.9-3.2c-0.9-2.6-3-3.6-5.4-3.9
					c-7.1-1.2-13.7-3.7-20.2-6.7c-4.2-2-8.6-3.7-12.5-6.2c-5.5-3.4-10.3-7.6-14-12.9c-3.5-5-5.9-10.5-5.2-17.1s3.6-11.9,7.5-16.8
					c4.6-5.7,10.4-9.9,16.5-13.7c6.2-3.9,12.8-7.1,19.3-10.6c1.9-1,4-1.8,6-2.6c4.6-1.7,9.1-3.7,13.7-5.2c3.9-1.2,7.7-2.5,11.6-3.6
					c4.4-1.4,8.8-2.5,13.3-3.5c4.8-1.1,9.7-2.1,14.6-3c5.5-1,11-1.9,16.6-2.5c2-0.2,4-0.6,6-0.7c0.9-0.1,1.3,0.2,1.2,1.1
					c-0.1,0.8,0,1.7,0,2.5c0,0.6-0.1,1.2-0.8,1.2c-1.4,0-2.6,0.8-4,1c-6.1,0.8-11.9,2.6-17.8,4c-6.2,1.5-12.3,3.6-18.3,5.7
					c-3.3,1.2-6.5,2.5-9.7,3.9c-5,2.2-10,4.5-14.7,7.3c-5,2.9-9.8,6.2-14.3,9.8c-4.2,3.3-8,7.2-10.7,11.9c-2.9,5-4.1,10.5-3.3,16.3
					c0.5,3.3,2.1,6.3,3.9,9.1c1.7,2.7,3.7,5.3,6.3,7.1c3.3,2.3,6.4,5.2,10.2,6.7c0.8-0.5,0.8-0.5,0.5-2.2c-0.9-4.9,0.2-9.5,2.1-13.9
					c2.4-5.6,6.3-10.1,10.9-14.1c3-2.5,6.3-4.6,9.4-6.9c1.2-0.9,2.7-1.5,4-2.1c2.4-1.1,4.6-2.5,7.1-3.3c4.4-1.5,8.7-3.2,13.3-4.3
					c5.4-1.3,10.7-2.3,16.3-2.5c2.9-0.1,5.6-0.2,8.7,0.5c-2.9,2.3-5.8,3.9-8.7,5.7c-4.7,2.8-9.5,5.4-14.2,8.2
					c-3.6,2.1-7.2,4.3-10.7,6.7c-4.8,3.2-9.2,7-12.4,11.8c-1.3,2-2,4.4-2.4,6.8c-0.4,2.2,0.3,4.3,1.4,6.1c1.3,2.2,2.7,4.3,4.7,6.1
					c7.4,6.4,16,10.5,26,12.7c-2.1-3-3-6.1-4.1-9.1c-0.8-2.2-0.3-4.6,0.3-6.8c0.8-3.1,2.5-5.6,4.7-7.9c3.4-3.4,7.3-5.7,11.5-7.7
					c3.7-1.7,7.5-3.1,11.4-4.4c4.2-1.3,8.4-2.4,12.7-3.4c1.9-0.4,3.7-0.9,6-1.2c-2.1,2.6-4.3,4.6-7,5.8c-3.7,1.7-7.4,3.5-11.2,5.2
					c-2.8,1.2-5.5,2.8-7.8,4.8c-5.2,4.6-6.9,12.5-2.3,18.9c2.7,3.7,6.4,5.7,10.4,7.4c8.8,3.8,18.1,5.6,27.4,7.1
					c5.4,0.8,10.9,1,16.4,1.3c1.1,0.5,2.4-0.2,3.5,0.3c0.5-0.1,1.1-0.3,1.6-0.3c5.9,0.7,11.8,0,17.7-0.1c6.5-0.2,13-1.3,19.4-2.1
					c4.6-0.6,9.1-1.7,13.5-2.9c7.7-2,15.2-4.6,22.3-8.4c3.8-2,7.3-4.5,10.3-7.6s5.4-6.8,5.3-11.6c-0.1-4.3-1.9-7.7-4.8-10.5
					c-2.5-2.4-5-4.8-7.9-6.7c-2-1.3-4-2.7-5.5-4.6c15.6-3.8,38.7,8.4,34.9,32.6c2.4-1.5,5-2.8,7.2-4.5c3-2.3,6.1-4.4,8.3-7.5
					c0.7-1,1.7-1.8,2.5-2.7c2.2-2.4,3.7-5.2,4.8-8.1c1.4-3.9,1.5-8-0.6-11.9c-2.6-4.7-6.8-7.9-11.1-11c-6.2-4.5-13.1-7.7-19.7-11.2
					c-4.3-2.3-8.5-5-12.6-7.6c-1.9-1.2-3.2-3.1-4.9-4.9c13.9,0.9,26.9,4,39.6,8.5c8.4,2.9,16,7.1,22.5,13.2
					c6.1,5.7,10.7,12.3,12.3,20.9c0.4,2.4,1.2,4.7,1.1,7.2c1.3-0.2,2.1-1.1,2.8-2c3-3.8,6.5-7.2,9-11.4c3.3-5.4,5.8-11.3,5.5-17.7
					c-0.2-5.2-1.7-10.3-4.8-14.7c-1.7-2.3-3.7-4.5-5.8-6.5c-4.5-4.3-9.6-7.9-15-11.1c-15.1-9-31.5-14.3-48.4-18.2
					c-2.9-0.7-5.8-1.5-8.5-2.9c-2.1-1.1-4-2.4-5.2-4.9c1.5,0.2,2.8,0.3,4.2,0.4c8.1,0.5,16,1.7,24,2.9c20,3,39,9,57.3,17.6
					c5.7,2.7,11.3,5.7,16.4,9.4c4.5,3.3,8.8,6.9,12.3,11.4c2.4,3.2,4.3,6.7,5.9,10.5c2.7,6.6,2.6,13,0.5,19.7
					c-1.7,5.4-4.4,10-8,14.2c-5.1,6.1-11.1,10.9-17.9,14.9c-2.8,1.6-5.6,3.2-8.4,4.8c-6.3,3.5-12.9,6.3-19.6,9.1
					c-5.3,2.2-10.7,4.3-16.2,6.2c-6.1,2.1-12.3,4.1-18.6,5.8c-4.4,1.2-8.8,2.3-13.2,3.3c-4.8,1.1-9.5,2.1-14.4,3
					c-5.2,0.9-10.4,2-15.7,2.6c-2.2,0.2-4.3,0.8-6.5,0.8c-1.3,0.4-2.7-0.2-3.9,0.7c-4,0.3-8,0.6-12,0.9c-2.3,0.5-4.7-0.4-6.9,0.7
					c-5.3,0.1-10.5,0.8-15.8,1c-7.3,0.3-14.5,0.5-21.8,0.9c-3.8,0.2-7.5-0.1-11.2,0.1c-7.8,0.4-15.5,0-23.3-0.2c-1-0.4-2,0.2-3,0
					c-3.7-0.3-7.4-0.7-11.1-0.8c-6.5-0.2-12.8-1.4-19.3-1.9c-6.7-0.4-13.1-2.1-19.8-2.9c-6.6-0.7-13-2.5-19.4-3.7
					c-0.3-0.1-0.5-0.1-0.8-0.1c-0.3,0-0.7,0.2-0.9-0.2c0.1,0.4,0.6,0.4,0.7,0.8c8.2,5.7,17.4,9.4,26.5,13.3
					c11.5,4.9,23.4,8.7,35.5,11.8c12,3.1,24,6.4,36.3,8.5c7.5,1.3,15.1,2.7,22.7,3.4c5.6,0.5,11.2,1.6,16.8,1.7
					c4.2,0,8.4,0.8,12.6,0.6c3.4-0.2,6.8,0.2,10.2,0.1c2.2,0.6,4.3-0.5,6.4-0.3C1630.5,194.7,1631.3,194.5,1632.1,194.8z"/>
				<path id="XMLID_72_" d="M1647.3,225.8c6.9-0.5,13.8-0.9,20.7-1.7c5-0.6,10-1.4,14.9-2.6c6.3-1.5,12.6-3.2,18.7-5.4
					c5.3-1.8,10.5-4.2,15.5-6.7c2.9-1.4,5.9-2.8,8.4-4.7c1.8-1.4,4.1-1.9,5.8-3.7c-0.5,4.5-0.9,8.8-2.7,12.9
					c-2.1,4.7-5.2,8.6-9.1,11.7c-3.4,2.7-7.2,4.7-11.4,6.2c-7.5,2.7-15.2,4.1-23.1,4.8c-6.5,0.6-13,0.9-19.5,1.1
					c-7.6,0.3-15.1,0.5-22.7,0.7c-7.9,0.1-15.8,0.1-23.7,0c-4.3-0.1-8.6-0.6-12.9-0.5c-4.8,0.1-9.4-0.9-14.1-0.9
					c-6.2,0-12.1-1.5-18.2-2c-9.1-0.7-17.9-3.2-26.8-5c-9-1.8-17.8-4.4-26.2-8c-7.6-3.3-15.3-6.6-22.4-11
					c-6.3-3.9-12.4-8.1-17.9-13.1c-6.4-5.9-12.3-12.3-17.1-20c5.5,1,10.4,2.8,15.4,4.7c8.1,3.1,15.3,7.8,23,11.5
					c12.4,6.1,25,11.6,38.5,15.1c15.2,4,30.3,8.5,45.8,11.2c7,1.2,14.1,2.8,21.2,3.3c5.6,0.4,11.2,1.5,16.8,1.5
					c4.8,0,9.6,0.7,14.4,0.6C1641.6,225.7,1644.5,225.5,1647.3,225.8z"/>
				<path id="XMLID_68_" d="M1557.7,180.6c-3.5-0.4-7.1-0.9-10.6-1c-6.1-0.1-12-1.4-18-1.8c-1.5-0.1-3-0.1-4.5-0.2
					c0.3-0.7,0.6-1.3,1.3-1.5c3.4-0.9,6.7-2.1,10.2-2.7c7.7-1.3,15.3-1,23-0.3c0.7,0.4,1.5-0.2,2.2,0c4.2,0.4,8.5,1.2,12.7,1.2
					c5.2,0.1,10.3,1.2,15.5,0.1c0.5-0.1,1.1-0.1,1.7-0.1c4.9,0.1,9.8-0.9,14.7-1.2c6-0.5,12-1.2,17.9-1.9c5.3-0.6,10.7-1.4,16-2.2
					c5.3-0.8,10.6-1.8,15.9-2.8c4.5-0.8,9-1.9,13.5-3c4.3-1.1,8.5-2.2,12.8-3.4c6-1.7,11.9-3.8,17.7-6c5-1.9,10-4.1,14.8-6.5
					c5.9-2.9,11.6-6.1,17.3-9.4c4.1-2.4,8.2-5,12-8c3.7-3,7.8-5.5,11.1-9c0.6-0.6,1.3-0.9,2.4-1.7c-1.1,5-2,9.5-3.8,13.9
					c-2.5,6-6.4,10.9-10.9,15.4c-2.5,2.5-5.5,4.7-8.6,6.7c-3.5,2.3-7.4,4.1-11,6.3c-1.6,0.9-3.4,1.5-5.1,2.1
					c-4.9,1.8-9.8,3.8-14.8,5.2c-6.6,1.8-13.1,3.7-19.8,5.2c-4.7,1-9.4,2.1-14.2,2.9c-5.7,1-11.4,2-17.2,2.6c-2,0.2-3.9,0.6-5.9,0.7
					c-1.6,0.3-3.2-0.1-4.7,0.7c-11,0.9-22,1.3-33,1.7c-2.7-0.4-5.4,0-8.1,0.1c-8-0.7-16.1-0.5-24.2-1c-4.6-0.3-9.3-0.7-13.9-1
					c-0.6,0-1.2,0-1.8,0.2C1559.5,180.3,1558.6,181.1,1557.7,180.6z"/>
				<path id="XMLID_67_" d="M1611,271.7c-22.1-0.9-42.9-6.7-62.4-17.3c-6.4-3.5-12.1-8-17.3-13.1c-0.8-0.8-1.5-1.8-2.2-2.7
					c0.4-0.6,1-0.3,1.5-0.3c9.3-0.6,18.1,1.5,26.9,4c9.8,2.8,19.4,6.5,29.4,8.8c7,1.6,14.1,3.3,21.3,3.5c7.1,0.2,14.3,0.2,21.4-0.4
					c5.9-0.6,11.8-1.2,17.7-1.8c6-0.7,12-1.2,17.9-2c3.7-0.5,7.3-0.3,11.4-0.7c-3.2,2.9-5.7,5.5-8.7,7.8c-5.9,4.3-12.2,7.4-19.1,9.6
					c-4.3,1.4-8.7,2.4-13.2,3.2c-6.6,1.1-13.2,1.8-19.8,1.4C1614.2,271.3,1612.6,272.3,1611,271.7z"/>
				<path id="XMLID_66_" d="M1569.2,121.1c5.4-0.1,10.7-0.9,16.1-0.4c1,0.4,2.1-0.2,3.1,0.3c3.7-0.5,7.3,0.5,11,0.6
					c5.5,0.1,10.9,0.8,16,2.9c2,0.8,4.1,1.6,5.6,3.4c2.2,2.8,2.6,5,0.6,7.7c-1.2,1.7-2.8,3.2-4.8,4.1c-4.7,2.1-9.7,3.1-14.7,4.2
					c-5.4,1.2-11,1.9-16.4,3.1c-1,0.2-2.1,0.1-3.1,0.2c-5.1,0.4-10.1,0.7-15.2,0.8c-9.3,0.2-18.3-1.4-26.7-5.4
					c-4.5-2.2-7.7-5.6-9.3-10.4c-0.2-0.6-0.6-1.2,0.3-1.5c1.2-0.5,2.3-1.1,3.6-1.6c5.7-2.3,11.7-4,17.8-5.2c4.3-0.9,8.6-2,13.1-2
					C1567.2,121.5,1568.2,121.4,1569.2,121.1z"/>
				<path id="XMLID_65_" d="M1538.2,259.8c3.3,2.2,6.7,3.4,9.6,5.4c3,2,6.5,3.2,9.9,4.4c6.8,2.4,13.6,4.9,20.7,5.8
					c6.6,0.9,13,2.5,19.7,2.6c3.5,0,7,0.5,10.5,0.6c8.2,0,16.5,0,24.7-0.3c2-0.1,4-0.3,6-0.3c4.2,0.1,8.4-0.9,12.8-0.3
					c-1.6,2.6-3.9,4.5-6.1,6.5c-4.3,3.8-9.3,6.7-14.6,8.8c-3.2,1.3-6.6,2.3-10.1,3.1c-6.2,1.4-12.4,2-18.7,2.1
					c-4.3,0.1-8.6-0.3-12.8-1c-6.4-1-13-1.8-18.9-4.6c-5.7-2.8-11.4-5.8-16.3-10c-0.9-0.8-1.9-1.4-2.9-2.1c-4.3-3-7.7-6.8-10.8-10.9
					C1539.1,266.9,1538.3,263.7,1538.2,259.8z"/>
				<path id="XMLID_64_" d="M1614.5,302.3c3,0.2,6,0.3,9,0.5c-1,3-3.3,4.6-5.1,6.7c-2.5,2.9-5.9,4.7-8.9,6.8c-2,1.4-4.5,2.1-6.8,2.9
					c-3.1,1-6.4,1.7-9.7,2.2c-5.1,0.8-9.9,0-14.9-0.4c-9.7-0.8-17.4-6-24.9-11.4c-2.9-2.1-5.8-4.5-7.9-7.6
					c-2.3-3.3-3.8-6.7-3.8-10.8c0-0.6-0.2-1.3-0.3-2.1c1.4,0.5,2.5,1.3,3.6,2c5.9,3.7,12.4,6,19,8.1c4.2,1.3,8.5,2.3,12.9,2.7
					c8.4,0.7,16.7,0.7,25.1,0.6c1.7,0,3.6,0,5.3-0.3C1609.6,302.7,1612,302.4,1614.5,302.3z"/>
				<path id="XMLID_63_" d="M1568.3,329.6c6.2,0.5,12.3-0.1,18.4-0.5c0.8-0.1,1.7-0.6,2.5,0.1c-2.6,4-5.1,8-8.4,11.5
					c-1.8,2-3.7,4-5.3,6.2c-3.2,4.7-5.5,9.8-6,15.6c0,0.2-0.1,0.4-0.2,0.7c-14.9-9.9-26.4-22.4-32.8-39.4c9.9,2,19.3,4.9,29.3,5.7
					C1566.6,330,1567.5,329.3,1568.3,329.6z"/>
				<path id="XMLID_62_" class="st8" d="M1632.1,194.8c-3-0.1-5.9,0.9-8.9,0.1C1626.2,194.7,1629.1,194,1632.1,194.8z"/>
				<path id="XMLID_61_" class="st9" d="M1647.3,225.8c-2.8,0.2-5.7,0.4-8.5,0C1641.6,225.1,1644.5,225.7,1647.3,225.8z"/>
				<path id="XMLID_60_" class="st10" d="M1600.2,182.7c2.7-0.9,5.4-0.4,8.1-0.1C1605.6,182.6,1602.9,183.1,1600.2,182.7z"/>
				<path id="XMLID_59_" class="st11" d="M1614.5,302.3c-2.5,0.7-4.9,0.2-7.3,0C1609.6,302.3,1612,302.3,1614.5,302.3z"/>
				<path id="XMLID_58_" class="st12" d="M1608.2,162.5c0.7-1.2,2-0.7,3-0.8c1.3-0.1,2.6,0,3.9,0.1
					C1612.8,162,1610.5,162.2,1608.2,162.5z"/>
				<path id="XMLID_57_" class="st13" d="M1641.3,180.9c1.4-1.4,3.1-0.7,4.7-0.7C1644.4,180.4,1642.9,181.1,1641.3,180.9z"/>
				<path id="XMLID_56_" class="st14" d="M1611,271.7c1.6,0.1,3.1-0.9,4.7-0.1C1614.2,272.2,1612.6,272.1,1611,271.7z"/>
				<path id="XMLID_41_" class="st15" d="M1627.1,160.8c1.1-1.5,2.6-0.6,3.9-0.7C1629.7,160.3,1628.4,160.6,1627.1,160.8z"/>
				<path id="XMLID_40_" class="st16" d="M1569.2,121.1c-0.9,0.6-1.9,1-3,0.7C1567.1,121.1,1568.1,120.7,1569.2,121.1z"/>
				<path id="XMLID_39_" class="st17" d="M1563.3,154.9c-1.2,0.1-2.3,0-3.5-0.3C1560.9,154.9,1562.2,153.6,1563.3,154.9z"/>
				<path id="XMLID_38_" class="st18" d="M1533.1,164.2c1-0.7,2-0.3,3,0C1535.1,163.9,1534.1,165.2,1533.1,164.2z"/>
				<path id="XMLID_37_" class="st19" d="M1588.5,120.9c-1.1,0.1-2.1,0.1-3.1-0.3C1586.4,121,1587.5,119.6,1588.5,120.9z"/>
				<path id="XMLID_36_" class="st20" d="M1462.6,155.4c-0.7-0.2-1.4-0.5-2-1.3c1.1,0.2,2.1,0.3,2.9,0.8
					C1463.2,155.1,1462.8,155,1462.6,155.4z"/>
				<path id="XMLID_35_" class="st21" d="M1589.2,329.2c-0.8,0-1.7-0.1-2.5-0.1c0.5-0.2,1.1-0.5,1.6-0.7
					C1589,328.1,1589.4,328.4,1589.2,329.2z"/>
				<path id="XMLID_34_" class="st22" d="M1568.3,329.6c-0.9,0.7-1.7,0.2-2.6,0C1566.6,329.7,1567.5,328.5,1568.3,329.6z"/>
				<path id="XMLID_19_" class="st23" d="M1561.2,173.1c-0.7,0.7-1.5,0.2-2.2,0C1559.7,173,1560.5,172.1,1561.2,173.1z"/>
				<path id="XMLID_6_" class="st24" d="M1557.7,180.6c0.9,0.3,1.9-1.1,2.6,0.3C1559.5,181,1558.6,181,1557.7,180.6z"/>
				<path id="XMLID_5_" class="st25" d="M1435.8,127.2c0.4,0.6,0.4,1.3,0.3,2c0,0.8-0.4,0.7-0.8,0.2
					C1436.1,128.9,1435.4,127.9,1435.8,127.2z"/>
			</g>
		</g>
		<circle id="XMLID_83_" class="st26" cx="1481.7" cy="717.3" r="9.2"/>
		<circle id="XMLID_84_" class="st26" cx="1721.9" cy="717.3" r="9.2"/>
	</g>
	<g id="Layer_4">
		<path id="XMLID_8_" class="st27" d="M1639.9,161.5c0,0,34.6,15.3,19.7,36.4s-32.2,34.1-38.6,39.5c-6.4,5.4-7.6,6.9-5.2,8.1
			c2.4,1.2,6.4,4.2,3.2,6.9c-3.2,2.7-4.8,1.5-6.8,6.1s-1.2,15.7-4.8,17.6s-22.1,42.9-17.7,68.6l-0.7,7.3c0,0,2.3,4.2,7.5,2.7
			s8.1,3.5,5.2,4.6c-2.8,1.2-10.9,6.5-15.3,5.4c-4.4-1.2-11.3-0.1-12.5,0.2s-8.1-1.7-4.8-7.8l-0.9-3.8c0,0,3.3-68.6,5.3-75.9
			s3.6-23.4,2-33.7c-1.6-10.4-14.1-31.4-21.3-33.7c-7.2-2.3-14.1-5-15.3-8.4s-19.7-13.8-28.6-16.1c-8.9-2.3-37-8.1-37.8-10.7
			c-0.8-2.6-4.8-3.5,0-9.2c4.8-5.8-0.8-6.5-6.8-3.8s-13.3,3.9-13.7-1.5c-0.4-5.4,2.4-4.6-4.8-8.1s-4.4-3.1-8.1-5
			c-3.6-1.9-3.2-10.4,3.6-9.2s19.3,14.6,25,15.3c5.6,0.8,62.3,12.7,82.5,32.2c8.9,5.4,6.8-7.7,0-10s-13.6-3.5-10-9.2
			c3.6-5.8,3.5-8.1,10-6.5s16.2,10.7,15.8,13c-0.4,2.3-2.8,3.1,2.4,4.2c5.2,1.2,6.8,3.5,7.2,5.8s7.2,6.5,12.1,7.3s16.9-13,5.2-13
			c-11.7,0-11.3-2.3-7.2-7.7c4-5.4,5.2-10.7,9.7-8.8c4.4,1.9,9.3,6.1,11.7,9.2s6.4,1.9,6.4-2.3c0-4.2-3.6-6.9-6.4-10
			s-4-8.8-0.4-11.5s4.4-9.4,11.7-8.2C1625.4,138.9,1637.9,139.3,1639.9,161.5z"/>
	</g>
</g>
</svg>
