<?xml version="1.0" encoding="utf-8"?>
<!-- Generator: Adobe Illustrator 19.0.0, SVG Export Plug-In . SVG Version: 6.00 Build 0)  -->
<svg version="1.1" id="Layer_1" xmlns="http://www.w3.org/2000/svg" xmlns:xlink="http://www.w3.org/1999/xlink" x="0px" y="0px"
	 viewBox="0 0 960 560" style="enable-background:new 0 0 960 560;" xml:space="preserve">
<style type="text/css">
	.st0{stroke:#FFFFFF;stroke-width:3;stroke-miterlimit:10;}
	.st1{stroke:#FFFFFF;stroke-width:2;stroke-miterlimit:10;}
</style>
<path class="st0" d="M301.7,183.2L73.7,77C15,53.3,164.9,55.5,148.3,50.1C133.9,45.5,28.5,49,11,59.3h0c-2.5,5.3-0.2,11.6,5.1,14.1
	c46.2,21.8,85,40.1,117.5,55.4c-39.1,69-44.2,126-44.2,126s23.6-7.1,25.9-27.5c1.8-15.9,34.6-63.6,49-84.1
	c94.6,44.4,123.5,57.5,128.4,59.2c0.5,0.2,1.1,0.4,1.1,0.4c9.6,3.2,25.1,6.2,27.1,2.7C323.5,201,308.9,186.2,301.7,183.2z"/>
<circle class="st0" cx="177.7" cy="92.9" r="29.5"/>
<path class="st0" d="M362.4,55.9c-58.5-3.9-231,85.1-284,209.4c-8.1,19-25,56.7-7.8,77.1c31,36.9,153.8-24.3,165-30
	c1.5-1,6.3-1.7,7.4-8.3c0.9-5.4-4.9-11.8-10-18c-8.8-10.5-24.7-2.4-67.2,12.9c-19.5,7-48.2,15.3-51.5,11.8
	c-13.1-13.8,12.6-80.1,75.4-135.5c39.7-34.9,83.6-71.9,141.8-88.4c19.2-5.4,43-4.3,37.9-17C367.7,66,366.1,65,362.4,55.9z"/>
<g>
	<path class="st1" d="M368.1,281.2c-2.9,24-6.7,47.2-11.5,69.6c-4.7,22.4-10.8,42.6-18.1,60.7c-7.4,18-14.8,30.1-22.2,36.3
		c-7.5,6.2-16,9-25.7,8.3c-10.4-0.7-20.1-3.9-29.3-9.7l0.1,0c-7.9-4.9-14.6-11.3-20.2-19c-5.6-7.8-8.2-14.2-7.8-19.2
		c0.3-4.7,1.5-8.3,3.5-11c2-2.6,4.5-3.9,7.4-3.7c2.6,0.2,4.6,1.7,6.1,4.6c8.8,17,22.6,26.2,41.4,27.5c7.7,0.5,15.8-9.2,24.3-29.2
		c8.5-20,14.8-44.3,18.6-73c-25.6,22.5-44.8,33.3-57.7,32.4c-8.3-0.6-14.7-5.3-18.9-14.2c-4.3-8.9-6-19.3-5.2-31.3
		c0.8-12,4.2-29.3,10.2-51.8c6-22.5,10.7-36.5,14.1-41.7c3.4-5.3,8.6-7.7,15.5-7.2c3.7,0.3,6.4,2.5,8.2,6.8
		c1.7,4.3,2.4,8.9,2.1,13.8c-0.1,1.5-3.5,9.7-10.1,24.5c-8.1,18.2-12.6,34-13.6,47.5c-0.5,6.9-0.1,12.3,1.2,16
		c1.3,3.7,2.7,5.6,4.3,5.8c3.7,0.3,8.3-0.9,13.8-3.4c5.5-2.5,12.1-7,19.7-13.6c7.6-6.6,12.6-11.6,15-15.2c2.3-3.5,4.3-8.1,6-13.8
		c1.6-5.7,3.5-18.4,5.6-38.1c1.2-11.5,2.1-18.7,2.9-21.6c0.7-2.9,2.3-5.6,4.7-7.9c2.4-2.3,5.5-3.3,9.3-3.1c5.1,0.4,8.6,2,10.6,4.9
		c1.9,2.9,2.5,9.5,1.8,19.8L368.1,281.2z"/>
	<path class="st1" d="M417,372.2c-12.8-0.9-22.1-6-28.2-15.4c-6-9.4-8.5-22-7.4-37.9c1.7-25,11.6-51.4,29.4-79.4
		c17.9-27.9,34.4-41.4,49.7-40.3c7.3,0.5,13.3,5.6,17.8,15.4c4.5,9.7,6.4,19.6,5.7,29.8c-0.7,9.5-2.5,15.8-5.5,19
		c-3,3.1-5.7,4.6-8.3,4.4c-7.5-0.5-11.4-7.5-11.7-20.8c-0.2-9.8-1.8-14.8-4.7-15c-6-0.4-14.8,10-26.2,31.3
		c-11.4,21.3-17.7,40.2-18.9,56.8c-0.9,13.4,4.2,20.5,15.5,21.3c12.4,0.9,25.4-3.9,38.9-14.3c6.3-5,11.2-7.4,14.7-7.2
		c4.3,0.3,6.2,3.2,5.8,8.6c-0.5,7.6-8.1,17.1-22.6,28.4C446.7,368.2,432,373.3,417,372.2z"/>
	<path class="st1" d="M556.7,114.8c8.3,0.6,12.1,6.7,11.3,18.4c-0.4,5.4-1.4,11.1-3,17.2c-1.6,6.1-5.8,21.2-12.7,45.3
		c-5,17.5-9.3,36.6-12.7,57.5s-5.6,37.1-6.4,48.9c-0.9,12.6-1.2,27.6-0.9,45.1c0.1,4.7,0.1,7.6,0,8.8c-0.4,5.9-2.5,10.9-6.2,15
		c-3.7,4-7.6,5.9-11.6,5.6c-5.5-0.4-9.1-4-10.9-10.8c-1.8-6.8-2.1-18.3-1-34.4c2.4-34.8,8.5-75.5,18.2-122.3
		c9.7-46.7,16.8-74.2,21.5-82.5C547,118.4,551.8,114.4,556.7,114.8z"/>
	<path class="st1" d="M672.4,293.5c-6.8,22.8-18,41.7-33.6,56.6s-30.6,21.8-45.1,20.8c-11.4-0.8-20.5-6.8-27.2-18.1
		c-6.7-11.3-9.5-24.7-8.4-40.4c1.8-25.6,10.4-50.3,25.7-74.1c15.3-23.8,32.7-35.1,52.1-33.7c13.2,0.9,23.5,7.9,30.8,21.1
		c7.3,13.1,10.4,28.3,9.2,45.7c-0.5,7.5-1.7,14.9-3.5,22L672.4,293.5z M615.4,242.3c-5.8,5.8-11.8,15.2-17.9,28.3
		c-6.1,13.1-9.7,26.5-10.6,40c-0.6,8.2,0.1,15.1,2.1,20.6c2,5.5,4.9,8.4,8.8,8.7c9.6,0.7,20.1-5.9,31.4-19.8
		c11.4-13.8,17.7-29.8,19-48c0.7-10.2-0.4-18.7-3.3-25.6c-2.9-6.8-7.4-10.5-13.4-10.9c-5.7-0.4-11,1.8-16,6.5L615.4,242.3z"/>
	<path class="st1" d="M783.8,345.5c-3.1-9.2-4.6-26-4.6-50.5c0.1-25.5-2.8-38.4-8.7-38.9c-5.6-0.4-16.1,12.1-31.6,37.6
		c-15.5,25.5-25.3,44.4-29.4,56.7c-1,3.7-2.5,6.8-4.5,9.1c-2.1,2.3-4,3.5-5.9,3.3c-11.8-0.8-17.1-8.1-16.2-21.9
		c0.3-4.7,2.2-15.2,5.7-31.6c4.5-21.2,7.8-47.3,10-78.2c0.3-4.7,2.3-9.5,5.8-14.6c3.5-5.1,7.1-7.5,10.6-7.2c4.5,0.3,7.8,2,10,5
		c2.2,3,2.9,10.8,2,23.1c-0.7,9.4-4.1,27.5-10.4,54.3c20.3-49.2,40.8-73,61.4-71.6c17.9,1.3,27.2,20.1,27.7,56.5
		c0.5,37.1,2.8,55.8,6.8,56.1c1.8,0.1,3.9-0.2,6.3-1.1c2.9-1,5.1-1.4,6.7-1.3c3.7,0.3,5.4,3.2,5,8.7c-0.4,5.1-3.3,10.3-8.8,15.6
		c-5.5,5.3-12.1,7.7-19.8,7.2c-9-0.6-15-6.1-18.2-16.4L783.8,345.5z"/>
	<path class="st1" d="M942.7,317.7c-0.7,10.3-8.3,22.2-22.9,35.5c-14.5,13.4-30.3,19.5-47.3,18.3c-13.1-0.9-23-6.9-29.7-18
		c-6.8-11.1-9.5-26-8.2-44.9c1.9-27.8,11.4-53.2,28.4-76.4c17-23.2,34.2-34.2,51.6-33c8.7,0.6,15.4,4.6,20.1,12
		c4.8,7.4,6.8,16,6.1,25.7c-1.2,17.2-8.8,33.2-22.8,47.9c-14,14.7-31.3,24.3-51.9,28.9c-2.4,0.5-3.7,2.2-3.9,5.1
		c-0.3,4.8,1,9.4,4,13.9c3,4.5,7.2,7,12.7,7.4c15.5,1.1,31.7-8.1,48.4-27.5c3.2-3.8,6.2-5.5,9-5.3C941,307.6,943.1,311,942.7,317.7z
		 M866.7,285.9c12.4-2.3,23.7-8.3,33.7-17.8c10-9.6,15.3-18.5,15.9-26.8c0.2-3.3-0.3-6.1-1.6-8.4c-1.3-2.3-3-3.6-5.3-3.7
		c-6.7-0.5-14.6,5.4-23.7,17.5C876.7,258.7,870.3,271.8,866.7,285.9z"/>
</g>
</svg>
